# 3ds Max Wavefront OBJ Exporter v0.97b - (c)2007 guruware
# File Created: 07.12.2017 01:21:47

mtllib city_002.mtl

#
# object Box005
#

v  -0.0201 0.2467 -4.4047
v  -9.2312 0.2467 -4.4047
v  -9.2312 0.2467 -3.5509
v  0.4629 0.2467 -3.5509
v  -9.2312 0.1547 -0.9896
v  1.6370 0.1547 -0.9896
v  1.6370 0.2467 -0.9896
v  -9.2312 0.2467 -0.9896
v  -0.0201 0.1547 -4.4047
v  0.4629 0.1547 -3.5509
v  -0.4600 0.1547 -6.9661
v  -9.2312 0.1547 -6.9661
v  -9.2312 0.2467 -6.9661
v  -0.4600 0.2467 -6.9661
v  -9.2312 0.1547 -3.5509
v  -9.2312 0.1547 -4.4047
v  -9.2312 0.2467 -6.1123
v  -0.4676 0.2467 -6.1123
v  -9.2312 0.2467 -5.2585
v  -0.3689 0.2467 -5.2585
v  1.4356 0.2467 -1.8434
v  -9.2312 0.2467 -1.8434
v  1.0188 0.2467 -2.6972
v  -9.2312 0.2467 -2.6972
v  -0.4676 0.1547 -6.1123
v  -0.3689 0.1547 -5.2585
v  1.4356 0.1547 -1.8434
v  1.0188 0.1547 -2.6972
v  -9.2312 0.1547 -1.8434
v  -9.2312 0.1547 -2.6972
v  -9.2312 0.1547 -6.1123
v  -9.2312 0.1547 -5.2585
# 32 vertices

vn 0.0000 1.0000 -0.0000
vn 0.0000 0.0000 1.0000
vn 0.8999 0.0000 -0.4362
vn 0.8546 0.0000 -0.5193
vn 0.0000 0.0000 -1.0000
vn -1.0000 0.0000 -0.0000
vn 1.0000 0.0000 0.0089
vn 0.9986 0.0000 -0.0531
vn 0.9685 0.0000 -0.2488
vn 0.9733 0.0000 -0.2297
vn 0.9418 0.0000 -0.3362
vn 0.8700 0.0000 -0.4931
# 12 vertex normals

vt 1.0000 0.5714 0.0000
vt 0.0000 0.5714 0.0000
vt 0.0000 0.4286 0.0000
vt 1.0000 0.4286 0.0000
vt 0.0000 0.0000 0.0000
vt 1.0000 0.0000 0.0000
vt 1.0000 1.0000 0.0000
vt 0.0000 1.0000 0.0000
vt 0.5714 0.0000 0.0000
vt 0.5714 1.0000 0.0000
vt 0.4286 1.0000 0.0000
vt 0.4286 0.0000 0.0000
vt 0.0000 0.8571 0.0000
vt 1.0000 0.8571 0.0000
vt 0.0000 0.7143 0.0000
vt 1.0000 0.7143 0.0000
vt 1.0000 0.1429 0.0000
vt 0.0000 0.1429 0.0000
vt 1.0000 0.2857 0.0000
vt 0.0000 0.2857 0.0000
vt 0.8571 1.0000 0.0000
vt 0.8571 0.0000 0.0000
vt 0.7143 1.0000 0.0000
vt 0.7143 0.0000 0.0000
vt 0.1429 0.0000 0.0000
vt 0.1429 1.0000 0.0000
vt 0.2857 0.0000 0.0000
vt 0.2857 1.0000 0.0000
# 28 texture coords

g Box005
usemtl wire_224087143
s 2
f 1/1/1 2/2/1 3/3/1 
f 3/3/1 4/4/1 1/1/1 
s 1
f 5/5/2 6/6/2 7/7/2 
f 7/7/2 8/8/2 5/5/2 
s 4
f 9/9/3 1/10/3 4/11/4 
f 4/11/4 10/12/4 9/9/3 
s 1
f 11/5/5 12/6/5 13/7/5 
f 13/7/5 14/8/5 11/5/5 
s 4
f 15/9/6 3/10/6 2/11/6 
f 2/11/6 16/12/6 15/9/6 
s 2
f 14/7/1 13/8/1 17/13/1 
f 17/13/1 18/14/1 14/7/1 
f 18/14/1 17/13/1 19/15/1 
f 19/15/1 20/16/1 18/14/1 
f 20/16/1 19/15/1 2/2/1 
f 2/2/1 1/1/1 20/16/1 
f 8/5/1 7/6/1 21/17/1 
f 21/17/1 22/18/1 8/5/1 
f 22/18/1 21/17/1 23/19/1 
f 23/19/1 24/20/1 22/18/1 
f 24/20/1 23/19/1 4/4/1 
f 4/4/1 3/3/1 24/20/1 
s 4
f 11/6/7 14/7/7 18/21/8 
f 18/21/8 25/22/8 11/6/7 
f 25/22/8 18/21/8 20/23/9 
f 20/23/9 26/24/9 25/22/8 
f 26/24/9 20/23/9 1/10/3 
f 1/10/3 9/9/3 26/24/9 
f 7/8/10 6/5/10 27/25/11 
f 27/25/11 21/26/11 7/8/10 
f 21/26/11 27/25/11 28/27/12 
f 28/27/12 23/28/12 21/26/11 
f 23/28/12 28/27/12 10/12/4 
f 10/12/4 4/11/4 23/28/12 
f 5/6/6 8/7/6 22/21/6 
f 22/21/6 29/22/6 5/6/6 
f 29/22/6 22/21/6 24/23/6 
f 24/23/6 30/24/6 29/22/6 
f 30/24/6 24/23/6 3/10/6 
f 3/10/6 15/9/6 30/24/6 
f 13/8/6 12/5/6 31/25/6 
f 31/25/6 17/26/6 13/8/6 
f 17/26/6 31/25/6 32/27/6 
f 32/27/6 19/28/6 17/26/6 
f 19/28/6 32/27/6 16/12/6 
f 16/12/6 2/11/6 19/28/6 
# 46 faces

#
# object Box006
#

v  -9.2312 0.2467 6.8419
v  -3.9443 0.2467 6.8419
v  -3.9443 0.2467 -0.0760
v  -9.2312 0.2467 -0.0760
v  -9.2312 0.1547 6.8419
v  -3.9443 0.1547 6.8419
v  -3.9443 0.1547 -0.0760
v  -9.2312 0.1547 -0.0760
# 8 vertices

vn 0.0000 1.0000 -0.0000
vn 0.0000 0.0000 1.0000
vn 1.0000 0.0000 -0.0000
vn 0.0000 0.0000 -1.0000
vn -1.0000 0.0000 -0.0000
# 5 vertex normals

vt 0.0000 0.0000 0.0000
vt 1.0000 0.0000 0.0000
vt 1.0000 1.0000 0.0000
vt 0.0000 1.0000 0.0000
# 4 texture coords

g Box006
usemtl wire_224087143
s 2
f 33/29/13 34/30/13 35/31/13 
f 35/31/13 36/32/13 33/29/13 
s 1
f 37/29/14 38/30/14 34/31/14 
f 34/31/14 33/32/14 37/29/14 
s 4
f 38/29/15 39/30/15 35/31/15 
f 35/31/15 34/32/15 38/29/15 
s 1
f 39/29/16 40/30/16 36/31/16 
f 36/31/16 35/32/16 39/29/16 
s 4
f 40/29/17 37/30/17 33/31/17 
f 33/31/17 36/32/17 40/29/17 
# 10 faces

#
# object Box007
#

v  -3.0791 0.2467 6.8419
v  1.7932 0.2467 6.8419
v  1.7932 0.2467 -0.0760
v  -3.0791 0.2467 -0.0760
v  -3.0791 0.1547 6.8419
v  1.7932 0.1547 6.8419
v  1.7932 0.1547 -0.0760
v  -3.0791 0.1547 -0.0760
# 8 vertices

vn 0.0000 1.0000 -0.0000
vn 0.0000 0.0000 1.0000
vn 1.0000 0.0000 -0.0000
vn 0.0000 0.0000 -1.0000
vn -1.0000 0.0000 -0.0000
# 5 vertex normals

vt 0.0000 0.0000 0.0000
vt 1.0000 0.0000 0.0000
vt 1.0000 1.0000 0.0000
vt 0.0000 1.0000 0.0000
# 4 texture coords

g Box007
usemtl wire_224087143
s 2
f 41/33/18 42/34/18 43/35/18 
f 43/35/18 44/36/18 41/33/18 
s 1
f 45/33/19 46/34/19 42/35/19 
f 42/35/19 41/36/19 45/33/19 
s 4
f 46/33/20 47/34/20 43/35/20 
f 43/35/20 42/36/20 46/33/20 
s 1
f 47/33/21 48/34/21 44/35/21 
f 44/35/21 43/36/21 47/33/21 
s 4
f 48/33/22 45/34/22 41/35/22 
f 41/35/22 44/36/22 48/33/22 
# 10 faces

#
# object Box008
#

v  6.5553 0.2467 2.2300
v  5.7798 0.2467 2.2300
v  5.7798 0.2467 4.5359
v  6.5553 0.2467 4.5359
v  6.5553 0.1547 6.8419
v  6.5553 0.2467 6.8419
v  5.7798 0.2467 6.8419
v  5.7798 0.1547 6.8419
v  9.6574 0.1547 2.2300
v  9.6574 0.2467 2.2300
v  9.6574 0.2467 4.5359
v  9.6574 0.1547 4.5359
v  4.4898 0.1750 -6.9963
v  4.4898 0.2675 -6.9963
v  5.5233 0.2467 -6.9963
v  5.5233 0.1547 -6.9963
v  2.6777 0.1547 4.5359
v  2.6777 0.2467 4.5359
v  2.6777 0.2467 2.2300
v  2.6777 0.1547 2.2300
v  1.0756 0.2467 -4.0304
v  1.0756 0.1547 -4.0304
v  1.7152 0.1547 -3.0418
v  1.7152 0.2467 -3.0418
v  5.8433 1.6636 -4.0304
v  4.8898 1.2133 -4.0304
v  5.2451 1.4838 -3.0418
v  6.1275 1.5286 -3.0418
v  9.6574 0.1547 -4.0304
v  9.6574 0.2467 -4.0304
v  9.6574 0.2467 -3.0418
v  9.6574 0.1547 -3.0418
v  0.3557 0.2467 -6.9963
v  0.3557 0.1547 -6.9963
v  0.3557 0.1547 -6.0077
v  0.3557 0.2467 -6.0077
v  0.5549 0.1547 -5.0191
v  0.5549 0.2467 -5.0191
v  2.6777 0.1547 -0.0760
v  2.6777 0.2467 -0.0760
v  2.4968 0.2467 -1.0646
v  2.4968 0.1547 -1.0646
v  2.1554 0.2467 -2.0532
v  2.1554 0.1547 -2.0532
v  4.4898 0.4000 -6.0077
v  5.5233 0.5141 -6.0077
v  4.6005 0.7071 -5.0191
v  5.6118 1.0718 -5.0191
v  5.7798 0.4913 -0.0760
v  6.5553 0.4921 -0.0760
v  6.4749 0.8618 -1.0646
v  5.6793 0.8576 -1.0646
v  6.3232 1.4032 -2.0532
v  5.4896 1.4032 -2.0532
v  9.6574 0.1547 -6.9963
v  9.6574 0.2467 -6.9963
v  9.6574 0.2467 -6.0077
v  9.6574 0.1547 -6.0077
v  9.6574 0.2467 -5.0191
v  9.6574 0.1547 -5.0191
v  9.6574 0.2467 -0.0760
v  9.6574 0.1547 -0.0760
v  9.6574 0.1547 -1.0646
v  9.6574 0.2467 -1.0646
v  9.6574 0.1547 -2.0532
v  9.6574 0.2467 -2.0532
v  8.8819 0.1595 2.2300
v  8.8819 0.2467 4.5359
v  8.1063 0.1595 2.2300
v  8.1063 0.2467 4.5359
v  7.3308 0.2467 2.2300
v  7.3308 0.2467 4.5359
v  3.4532 0.2467 4.5359
v  3.4532 0.2467 2.2300
v  4.2288 0.2467 4.5359
v  4.2288 0.2467 2.2300
v  5.0043 0.2467 4.5359
v  5.0043 0.2467 2.2300
v  9.6574 0.1547 6.8419
v  9.6574 0.2467 6.8419
v  8.8819 0.2467 6.8419
v  8.8819 0.1547 6.8419
v  8.1063 0.2467 6.8419
v  8.1063 0.1547 6.8419
v  7.3308 0.2467 6.8419
v  7.3308 0.1547 6.8419
v  2.6777 0.2467 6.8419
v  2.6777 0.1547 6.8419
v  3.4532 0.1547 6.8419
v  3.4532 0.2467 6.8419
v  4.2288 0.1547 6.8419
v  4.2288 0.2467 6.8419
v  5.0043 0.1547 6.8419
v  5.0043 0.2467 6.8419
v  1.3892 0.2675 -6.9963
v  1.3892 0.1750 -6.9963
v  2.4227 0.2677 -6.9963
v  2.4227 0.1748 -6.9963
v  3.4563 0.2677 -6.9963
v  3.4563 0.1748 -6.9963
v  8.6239 0.1547 -6.9963
v  8.6239 0.2467 -6.9963
v  7.5903 0.1547 -6.9963
v  7.5903 0.2467 -6.9963
v  6.5568 0.1547 -6.9963
v  6.5568 0.2467 -6.9963
v  2.0292 0.3148 -4.0304
v  2.5977 0.2467 -3.0418
v  2.9827 0.3266 -4.0304
v  3.4802 0.4369 -3.0418
v  3.9362 0.5351 -4.0304
v  4.3626 1.0432 -3.0418
v  8.7749 0.6232 -3.0418
v  8.7039 0.2467 -4.0304
v  7.8925 0.4666 -3.0418
v  7.7503 0.6273 -4.0304
v  7.0100 1.2574 -3.0418
v  6.7968 1.5556 -4.0304
v  1.3892 0.6072 -6.0077
v  2.4227 0.7660 -6.0077
v  3.4563 0.5370 -6.0077
v  8.6239 0.2467 -6.0077
v  7.5903 0.3228 -6.0077
v  6.5568 0.5151 -6.0077
v  1.5663 0.6124 -5.0191
v  2.5777 0.7660 -5.0191
v  3.5891 0.5370 -5.0191
v  8.6460 0.2467 -5.0191
v  7.6346 0.5921 -5.0191
v  6.6232 1.0695 -5.0191
v  8.8819 0.5997 -0.0760
v  8.8618 0.2467 -1.0646
v  8.1063 0.5997 -0.0760
v  8.0662 0.2974 -1.0646
v  7.3308 0.2467 -0.0760
v  7.2705 0.6212 -1.0646
v  3.2924 0.2467 -1.0646
v  3.4532 0.2467 -0.0760
v  4.0881 0.4184 -1.0646
v  4.2288 0.2467 -0.0760
v  4.8837 0.7580 -1.0646
v  5.0043 0.4879 -0.0760
v  8.8238 0.6232 -2.0532
v  7.9903 0.4942 -2.0532
v  7.1567 1.0761 -2.0532
v  2.9889 0.2467 -2.0532
v  3.8225 0.4942 -2.0532
v  4.6561 1.0761 -2.0532
# 148 vertices

vn 0.0190 0.9992 0.0362
vn -0.0001 0.9981 0.0611
vn 0.0000 1.0000 -0.0000
vn 0.0000 0.0000 1.0000
vn 1.0000 0.0000 -0.0000
vn 0.0000 0.0000 -1.0000
vn -1.0000 0.0000 -0.0000
vn -0.8896 0.0000 0.4567
vn -0.9030 0.0000 0.4296
vn -0.1538 0.9625 -0.2235
vn -0.5604 0.7917 -0.2433
vn -0.3566 0.9322 0.0623
vn 0.1402 0.9794 0.1456
vn -0.9962 0.0000 0.0873
vn -0.9542 0.0000 0.2991
vn -0.9968 0.0000 0.0795
vn -0.9744 0.0000 0.2246
vn -0.9450 0.0000 0.3270
vn -0.0261 0.9808 -0.1932
vn -0.0461 0.9753 -0.2159
vn -0.0855 0.9238 -0.3731
vn 0.0124 0.9541 -0.2991
vn -0.3455 0.8905 -0.2960
vn -0.2158 0.8338 -0.5082
vn -0.0036 0.9653 0.2610
vn 0.1954 0.9464 0.2571
vn 0.1841 0.8805 0.4367
vn -0.0610 0.8854 0.4608
vn 0.2150 0.9242 0.3156
vn -0.1973 0.9241 0.3273
vn -0.1334 0.9909 -0.0177
vn -0.0400 0.9983 0.0426
vn -0.0068 0.9999 -0.0129
vn 0.0661 0.9933 0.0948
vn 0.0000 0.9998 -0.0219
vn 0.0397 0.9982 0.0449
vn 0.0068 0.9999 -0.0089
vn -0.0187 0.9995 0.0246
vn -0.0003 0.9982 0.0606
vn -0.0656 0.9678 0.2431
vn -0.1908 0.9584 0.2124
vn -0.0226 0.9988 0.0443
vn -0.1110 0.9929 0.0436
vn -0.1047 0.9784 0.1781
vn -0.4522 0.8917 0.0184
vn -0.4713 0.8790 -0.0725
vn -0.6288 0.7775 -0.0071
vn 0.0914 0.9841 -0.1522
vn 0.4957 0.8685 -0.0058
vn 0.1151 0.9858 -0.1227
vn 0.1681 0.9763 -0.1367
vn 0.3685 0.9277 -0.0595
vn 0.6395 0.7688 -0.0037
vn 0.6069 0.7881 0.1023
vn 0.4526 0.8796 -0.1466
vn -0.2215 0.9544 -0.1999
vn -0.4181 0.9077 0.0349
vn -0.2728 0.9551 -0.1159
vn -0.0527 0.9113 -0.4083
vn 0.0464 0.9711 -0.2340
vn 0.0582 0.8910 -0.4503
vn 0.1954 0.9606 -0.1978
vn 0.0393 0.9643 -0.2619
vn -0.0000 1.0000 0.0000
vn -0.0000 1.0000 -0.0000
vn 0.0772 0.9955 -0.0543
vn 0.0229 0.9976 -0.0654
vn 0.1676 0.9513 -0.2586
vn 0.0556 0.9680 -0.2449
vn 0.1077 0.8962 -0.4303
vn -0.4241 0.8977 0.1198
vn -0.2780 0.9434 0.1811
vn 0.0516 0.9790 0.1973
vn 0.0279 0.9990 0.0362
vn 0.2196 0.9755 -0.0159
vn 0.4783 0.8535 -0.2069
vn 0.2242 0.8282 -0.5137
vn 0.2128 0.9764 -0.0365
vn 0.4622 0.8831 0.0800
vn 0.1116 0.9861 -0.1229
vn 0.0949 0.9943 -0.0484
vn -0.2172 0.9711 -0.0992
vn 0.1487 0.9858 0.0778
vn -0.0040 0.9942 0.1074
vn 0.4324 0.8388 0.3308
vn -0.1543 0.9869 0.0467
vn -0.0294 0.9989 0.0377
vn -0.3825 0.9009 0.2052
vn -0.2089 0.9702 0.1226
vn -0.3250 0.8683 0.3748
vn -0.1869 0.9585 0.2152
vn 0.4197 0.9004 0.1145
vn 0.1802 0.9700 0.1630
vn 0.2420 0.9631 0.1181
vn 0.5668 0.7940 0.2199
vn -0.1778 0.9832 0.0415
vn -0.5213 0.8420 0.1392
vn -0.5413 0.8039 0.2463
# 98 vertex normals

vt 0.5556 0.6667 0.0000
vt 0.4444 0.6667 0.0000
vt 0.4444 0.3333 0.0000
vt 0.5556 0.3333 0.0000
vt 0.5556 0.0000 0.0000
vt 0.5556 1.0000 0.0000
vt 0.4444 1.0000 0.0000
vt 0.4444 0.0000 0.0000
vt 0.6667 0.0000 0.0000
vt 0.6667 1.0000 0.0000
vt 0.3333 1.0000 0.0000
vt 0.3333 0.0000 0.0000
vt 0.5714 1.0000 0.0000
vt 0.5714 0.0000 0.0000
vt 0.4286 0.0000 0.0000
vt 0.4286 1.0000 0.0000
vt 0.4921 1.0000 0.0000
vt 0.5079 1.0000 0.0000
vt 1.0000 1.0000 0.0000
vt 1.0000 0.0000 0.0000
vt 0.8571 0.0000 0.0000
vt 0.8571 1.0000 0.0000
vt 0.7143 0.0000 0.0000
vt 0.7143 1.0000 0.0000
vt 0.0000 0.0000 0.0000
vt 0.0000 1.0000 0.0000
vt 0.1429 1.0000 0.0000
vt 0.1429 0.0000 0.0000
vt 0.2857 1.0000 0.0000
vt 0.2857 0.0000 0.0000
vt 0.5397 1.0000 0.0000
vt 0.4603 1.0000 0.0000
vt 0.5238 1.0000 0.0000
vt 0.4762 1.0000 0.0000
vt 1.0000 0.6667 0.0000
vt 0.8889 0.6667 0.0000
vt 0.8889 0.3333 0.0000
vt 1.0000 0.3333 0.0000
vt 0.7778 0.6667 0.0000
vt 0.7778 0.3333 0.0000
vt 0.6667 0.6667 0.0000
vt 0.6667 0.3333 0.0000
vt 0.0000 0.3333 0.0000
vt 0.1111 0.3333 0.0000
vt 0.1111 0.6667 0.0000
vt 0.0000 0.6667 0.0000
vt 0.2222 0.3333 0.0000
vt 0.2222 0.6667 0.0000
vt 0.3333 0.3333 0.0000
vt 0.3333 0.6667 0.0000
vt 0.8889 1.0000 0.0000
vt 0.8889 0.0000 0.0000
vt 0.7778 1.0000 0.0000
vt 0.7778 0.0000 0.0000
vt 0.1111 0.0000 0.0000
vt 0.1111 1.0000 0.0000
vt 0.2222 0.0000 0.0000
vt 0.2222 1.0000 0.0000
vt 0.6984 1.0000 0.0000
vt 0.6190 1.0000 0.0000
vt 0.3016 1.0000 0.0000
vt 0.3810 1.0000 0.0000
# 62 texture coords

g Box008
usemtl wire_224087143
s 1
f 49/37/23 50/38/24 51/39/25 
f 51/39/25 52/40/25 49/37/23 
s 4
f 53/41/26 54/42/26 55/43/26 
f 55/43/26 56/44/26 53/41/26 
s 2
f 57/45/27 58/46/27 59/47/27 
f 59/47/27 60/48/27 57/45/27 
s 16
f 61/41/28 62/42/28 63/43/28 
f 63/43/28 64/44/28 61/41/28 
s 8
f 65/45/29 66/46/29 67/47/29 
f 67/47/29 68/48/29 65/45/29 
f 69/49/30 70/50/30 71/51/31 
f 71/51/31 72/52/31 69/49/30 
s 1
f 73/53/32 74/54/33 75/53/34 
f 75/53/34 76/54/35 73/53/32 
s 2
f 77/51/27 78/52/27 79/49/27 
f 79/49/27 80/50/27 77/51/27 
s 8
f 81/55/29 82/56/29 83/57/36 
f 83/57/36 84/58/36 81/55/29 
f 84/58/36 83/57/36 85/59/37 
f 85/59/37 86/60/37 84/58/36 
f 86/60/37 85/59/37 70/50/30 
f 70/50/30 69/49/30 86/60/37 
f 87/61/38 88/62/38 89/63/39 
f 89/63/39 90/64/39 87/61/38 
f 90/64/39 89/63/39 91/65/40 
f 91/65/40 92/66/40 90/64/39 
f 92/66/40 91/65/40 72/52/31 
f 72/52/31 71/51/31 92/66/40 
s 1
f 62/42/41 93/67/42 94/68/43 
f 94/68/43 63/43/44 62/42/41 
f 94/68/43 93/67/42 95/69/45 
f 95/69/45 96/70/46 94/68/43 
f 96/70/46 95/69/45 74/54/33 
f 74/54/33 73/53/32 96/70/46 
f 97/43/47 98/42/48 99/67/49 
f 99/67/49 100/68/50 97/43/47 
f 100/68/50 99/67/49 101/69/51 
f 101/69/51 102/70/52 100/68/50 
f 102/70/52 101/69/51 76/54/35 
f 76/54/35 75/53/34 102/70/52 
s 2
f 103/61/27 104/62/27 105/63/27 
f 105/63/27 106/64/27 103/61/27 
f 106/64/27 105/63/27 107/65/27 
f 107/65/27 108/66/27 106/64/27 
f 108/66/27 107/65/27 78/52/27 
f 78/52/27 77/51/27 108/66/27 
f 109/55/27 110/56/27 111/57/27 
f 111/57/27 112/58/27 109/55/27 
f 112/58/27 111/57/27 113/59/27 
f 113/59/27 114/60/27 112/58/27 
f 114/60/27 113/59/27 80/50/27 
f 80/50/27 79/49/27 114/60/27 
s 1
f 58/71/53 115/72/54 116/73/55 
f 116/73/55 59/74/25 58/71/53 
f 115/72/54 117/75/56 118/76/57 
f 118/76/57 116/73/55 115/72/54 
f 117/75/56 119/77/58 120/78/59 
f 120/78/59 118/76/57 117/75/56 
f 119/77/58 49/37/23 52/40/25 
f 52/40/25 120/78/59 119/77/58 
f 66/79/25 121/80/25 122/81/25 
f 122/81/25 67/82/25 66/79/25 
f 121/80/25 123/83/25 124/84/60 
f 124/84/60 122/81/25 121/80/25 
f 123/83/25 125/85/25 126/86/61 
f 126/86/61 124/84/60 123/83/25 
f 125/85/25 51/39/25 50/38/24 
f 50/38/24 126/86/61 125/85/25 
s 4
f 127/56/26 128/55/26 129/87/26 
f 129/87/26 130/88/26 127/56/26 
f 130/88/26 129/87/26 131/89/26 
f 131/89/26 132/90/26 130/88/26 
f 132/90/26 131/89/26 133/46/26 
f 133/46/26 134/45/26 132/90/26 
f 134/45/26 133/46/26 54/42/26 
f 54/42/26 53/41/26 134/45/26 
f 135/62/26 136/61/26 137/91/26 
f 137/91/26 138/92/26 135/62/26 
f 138/92/26 137/91/26 139/93/26 
f 139/93/26 140/94/26 138/92/26 
f 140/94/26 139/93/26 141/48/26 
f 141/48/26 142/47/26 140/94/26 
f 142/47/26 141/48/26 56/44/26 
f 56/44/26 55/43/26 142/47/26 
s 16
f 82/56/28 81/55/28 143/87/28 
f 143/87/28 144/88/28 82/56/28 
f 144/88/28 143/87/28 145/89/28 
f 145/89/28 146/90/28 144/88/28 
f 146/90/28 145/89/28 147/46/28 
f 147/46/28 148/45/28 146/90/28 
f 148/45/28 147/46/28 62/42/28 
f 62/42/28 61/41/28 148/45/28 
f 104/62/28 103/61/28 149/91/28 
f 149/91/28 150/92/28 104/62/28 
f 150/92/28 149/91/28 151/93/28 
f 151/93/28 152/94/28 150/92/28 
f 152/94/28 151/93/28 153/48/28 
f 153/48/28 154/47/28 152/94/28 
f 154/47/28 153/48/28 64/44/28 
f 64/44/28 63/43/28 154/47/28 
s 1
f 155/42/62 69/49/63 72/52/64 
f 72/52/64 156/43/65 155/42/62 
f 157/67/66 155/42/62 156/43/65 
f 156/43/65 158/68/67 157/67/66 
f 159/69/68 157/67/66 158/68/67 
f 158/68/67 160/70/69 159/69/68 
f 74/54/33 159/69/68 160/70/69 
f 160/70/69 75/53/34 74/54/33 
f 161/42/70 79/49/71 78/52/72 
f 78/52/72 162/43/73 161/42/70 
f 163/67/74 161/42/70 162/43/73 
f 162/43/73 164/68/75 163/67/74 
f 165/69/76 163/67/74 164/68/75 
f 164/68/75 166/70/77 165/69/76 
f 76/54/35 165/69/76 166/70/77 
f 166/70/77 73/53/32 76/54/35 
f 81/55/78 84/58/79 167/89/80 
f 167/89/80 143/87/81 81/55/78 
f 143/87/81 167/89/80 168/95/82 
f 168/95/82 145/89/83 143/87/81 
f 145/89/83 168/95/82 169/96/84 
f 169/96/84 147/46/85 145/89/83 
f 147/46/85 169/96/84 93/67/42 
f 93/67/42 62/42/41 147/46/85 
f 105/63/86 104/62/87 150/92/86 
f 150/92/86 170/94/88 105/63/86 
f 170/94/88 150/92/86 152/94/89 
f 152/94/89 171/97/90 170/94/88 
f 171/97/90 152/94/89 154/47/91 
f 154/47/91 172/98/92 171/97/90 
f 172/98/92 154/47/91 63/43/44 
f 63/43/44 94/68/43 172/98/92 
f 167/89/80 84/58/79 86/60/93 
f 86/60/93 173/46/94 167/89/80 
f 168/95/82 167/89/80 173/46/94 
f 173/46/94 174/96/95 168/95/82 
f 169/96/84 168/95/82 174/96/95 
f 174/96/95 175/49/96 169/96/84 
f 93/67/42 169/96/84 175/49/96 
f 175/49/96 95/69/45 93/67/42 
f 176/47/97 107/65/87 105/63/86 
f 105/63/86 170/94/88 176/47/97 
f 177/98/98 176/47/97 170/94/88 
f 170/94/88 171/97/90 177/98/98 
f 178/52/99 177/98/98 171/97/90 
f 171/97/90 172/98/92 178/52/99 
f 96/70/46 178/52/99 172/98/92 
f 172/98/92 94/68/43 96/70/46 
f 173/46/94 86/60/93 69/49/63 
f 69/49/63 155/42/62 173/46/94 
f 174/96/95 173/46/94 155/42/62 
f 155/42/62 157/67/66 174/96/95 
f 175/49/96 174/96/95 157/67/66 
f 157/67/66 159/69/68 175/49/96 
f 95/69/45 175/49/96 159/69/68 
f 159/69/68 74/54/33 95/69/45 
f 162/43/73 78/52/72 107/65/87 
f 107/65/87 176/47/97 162/43/73 
f 164/68/75 162/43/73 176/47/97 
f 176/47/97 177/98/98 164/68/75 
f 166/70/77 164/68/75 177/98/98 
f 177/98/98 178/52/99 166/70/77 
f 73/53/32 166/70/77 178/52/99 
f 178/52/99 96/70/46 73/53/32 
f 179/87/100 109/55/101 112/58/102 
f 112/58/102 180/89/103 179/87/100 
f 181/89/104 179/87/100 180/89/103 
f 180/89/103 182/95/105 181/89/104 
f 183/46/106 181/89/104 182/95/105 
f 182/95/105 184/96/107 183/46/106 
f 98/42/48 183/46/106 184/96/107 
f 184/96/107 99/67/49 98/42/48 
f 185/94/108 89/63/25 88/62/25 
f 88/62/25 186/92/109 185/94/108 
f 187/97/110 185/94/108 186/92/109 
f 186/92/109 188/94/111 187/97/110 
f 189/98/112 187/97/110 188/94/111 
f 188/94/111 190/47/113 189/98/112 
f 100/68/50 189/98/112 190/47/113 
f 190/47/113 97/43/47 100/68/50 
f 180/89/103 112/58/102 114/60/114 
f 114/60/114 191/46/115 180/89/103 
f 182/95/105 180/89/103 191/46/115 
f 191/46/115 192/96/116 182/95/105 
f 184/96/107 182/95/105 192/96/116 
f 192/96/116 193/49/117 184/96/107 
f 99/67/49 184/96/107 193/49/117 
f 193/49/117 101/69/51 99/67/49 
f 194/47/118 91/65/25 89/63/25 
f 89/63/25 185/94/108 194/47/118 
f 195/98/119 194/47/118 185/94/108 
f 185/94/108 187/97/110 195/98/119 
f 196/52/120 195/98/119 187/97/110 
f 187/97/110 189/98/112 196/52/120 
f 102/70/52 196/52/120 189/98/112 
f 189/98/112 100/68/50 102/70/52 
f 191/46/115 114/60/114 79/49/71 
f 79/49/71 161/42/70 191/46/115 
f 192/96/116 191/46/115 161/42/70 
f 161/42/70 163/67/74 192/96/116 
f 193/49/117 192/96/116 163/67/74 
f 163/67/74 165/69/76 193/49/117 
f 101/69/51 193/49/117 165/69/76 
f 165/69/76 76/54/35 101/69/51 
f 156/43/65 72/52/64 91/65/25 
f 91/65/25 194/47/118 156/43/65 
f 158/68/67 156/43/65 194/47/118 
f 194/47/118 195/98/119 158/68/67 
f 160/70/69 158/68/67 195/98/119 
f 195/98/119 196/52/120 160/70/69 
f 75/53/34 160/70/69 196/52/120 
f 196/52/120 102/70/52 75/53/34 
f 98/42/48 97/43/47 50/38/24 
f 50/38/24 49/37/23 98/42/48 
f 55/44/25 54/41/25 52/40/25 
f 52/40/25 51/39/25 55/44/25 
s 2
f 110/56/27 109/55/27 58/46/27 
f 58/46/27 57/45/27 110/56/27 
f 128/62/27 127/61/27 60/48/27 
f 60/48/27 59/47/27 128/62/27 
s 8
f 136/56/29 135/55/29 66/46/29 
f 66/46/29 65/45/29 136/56/29 
f 88/62/38 87/61/38 68/48/29 
f 68/48/29 67/47/29 88/62/38 
s 1
f 109/55/101 179/87/100 115/72/54 
f 115/72/54 58/71/53 109/55/101 
f 129/88/25 128/56/25 59/74/25 
f 59/74/25 116/73/55 129/88/25 
f 179/87/100 181/89/104 117/75/56 
f 117/75/56 115/72/54 179/87/100 
f 131/90/25 129/88/25 116/73/55 
f 116/73/55 118/76/57 131/90/25 
f 181/89/104 183/46/106 119/77/58 
f 119/77/58 117/75/56 181/89/104 
f 133/45/25 131/90/25 118/76/57 
f 118/76/57 120/78/59 133/45/25 
f 183/46/106 98/42/48 49/37/23 
f 49/37/23 119/77/58 183/46/106 
f 54/41/25 133/45/25 120/78/59 
f 120/78/59 52/40/25 54/41/25 
f 135/61/25 138/91/25 121/80/25 
f 121/80/25 66/79/25 135/61/25 
f 186/92/109 88/62/25 67/82/25 
f 67/82/25 122/81/25 186/92/109 
f 138/91/25 140/93/25 123/83/25 
f 123/83/25 121/80/25 138/91/25 
f 188/94/111 186/92/109 122/81/25 
f 122/81/25 124/84/60 188/94/111 
f 140/93/25 142/48/25 125/85/25 
f 125/85/25 123/83/25 140/93/25 
f 190/47/113 188/94/111 124/84/60 
f 124/84/60 126/86/61 190/47/113 
f 142/48/25 55/44/25 51/39/25 
f 51/39/25 125/85/25 142/48/25 
f 97/43/47 190/47/113 126/86/61 
f 126/86/61 50/38/24 97/43/47 
# 256 faces

