solid GEOSPHERE
  facet normal 1.372643e-001 9.972835e-002 9.855013e-001
    outer loop
      vertex 0.000000e+000 0.000000e+000 1.575699e+000
      vertex 4.305858e-001 0.000000e+000 1.515725e+000
      vertex 1.330583e-001 4.095114e-001 1.515725e+000
    endloop
  endfacet
  facet normal 4.013874e-001 9.866932e-002 9.105781e-001
    outer loop
      vertex 4.305858e-001 0.000000e+000 1.515725e+000
      vertex 8.283939e-001 0.000000e+000 1.340369e+000
      vertex 5.700931e-001 4.141970e-001 1.409348e+000
    endloop
  endfacet
  facet normal 2.314326e-001 1.681456e-001 9.582098e-001
    outer loop
      vertex 4.305858e-001 0.000000e+000 1.515725e+000
      vertex 5.700931e-001 4.141970e-001 1.409348e+000
      vertex 1.330583e-001 4.095114e-001 1.515725e+000
    endloop
  endfacet
  facet normal 2.178755e-001 3.512516e-001 9.105782e-001
    outer loop
      vertex 1.330583e-001 4.095114e-001 1.515725e+000
      vertex 5.700931e-001 4.141970e-001 1.409348e+000
      vertex 2.559878e-001 7.878494e-001 1.340369e+000
    endloop
  endfacet
  facet normal 6.349720e-001 9.816239e-002 7.662733e-001
    outer loop
      vertex 8.283939e-001 0.000000e+000 1.340369e+000
      vertex 1.163142e+000 0.000000e+000 1.062981e+000
      vertex 9.735690e-001 4.170505e-001 1.166644e+000
    endloop
  endfacet
  facet normal 5.065660e-001 1.753167e-001 8.441889e-001
    outer loop
      vertex 8.283939e-001 0.000000e+000 1.340369e+000
      vertex 9.735690e-001 4.170505e-001 1.166644e+000
      vertex 5.700931e-001 4.141970e-001 1.409348e+000
    endloop
  endfacet
  facet normal 4.811256e-001 3.495583e-001 8.039448e-001
    outer loop
      vertex 5.700931e-001 4.141970e-001 1.409348e+000
      vertex 9.735690e-001 4.170505e-001 1.166644e+000
      vertex 6.974880e-001 7.970434e-001 1.166644e+000
    endloop
  endfacet
  facet normal 3.232737e-001 4.275971e-001 8.441889e-001
    outer loop
      vertex 5.700931e-001 4.141970e-001 1.409348e+000
      vertex 6.974880e-001 7.970434e-001 1.166644e+000
      vertex 2.559878e-001 7.878494e-001 1.340369e+000
    endloop
  endfacet
  facet normal 2.895752e-001 5.735604e-001 7.662732e-001
    outer loop
      vertex 2.559878e-001 7.878494e-001 1.340369e+000
      vertex 6.974880e-001 7.970434e-001 1.166644e+000
      vertex 3.594306e-001 1.106214e+000 1.062981e+000
    endloop
  endfacet
  facet normal 8.200725e-001 9.972889e-002 5.635027e-001
    outer loop
      vertex 1.163142e+000 0.000000e+000 1.062981e+000
      vertex 1.409348e+000 0.000000e+000 7.046740e-001
      vertex 1.296200e+000 4.095114e-001 7.968639e-001
    endloop
  endfacet
  facet normal 7.433267e-001 1.775780e-001 6.449274e-001
    outer loop
      vertex 1.163142e+000 0.000000e+000 1.062981e+000
      vertex 1.296200e+000 4.095114e-001 7.968639e-001
      vertex 9.735690e-001 4.170505e-001 1.166644e+000
    endloop
  endfacet
  facet normal 7.102906e-001 3.466097e-001 6.126573e-001
    outer loop
      vertex 9.735690e-001 4.170505e-001 1.166644e+000
      vertex 1.296200e+000 4.095114e-001 7.968639e-001
      vertex 1.084382e+000 7.878494e-001 8.283939e-001
    endloop
  endfacet
  facet normal 5.985369e-001 4.348626e-001 6.727913e-001
    outer loop
      vertex 9.735690e-001 4.170505e-001 1.166644e+000
      vertex 1.084382e+000 7.878494e-001 8.283939e-001
      vertex 6.974880e-001 7.970434e-001 1.166644e+000
    endloop
  endfacet
  facet normal 5.491373e-001 5.684180e-001 6.126575e-001
    outer loop
      vertex 6.974880e-001 7.970434e-001 1.166644e+000
      vertex 1.084382e+000 7.878494e-001 8.283939e-001
      vertex 7.900164e-001 1.106214e+000 7.968639e-001
    endloop
  endfacet
  facet normal 3.985872e-001 6.520711e-001 6.449276e-001
    outer loop
      vertex 6.974880e-001 7.970434e-001 1.166644e+000
      vertex 7.900164e-001 1.106214e+000 7.968639e-001
      vertex 3.594306e-001 1.106214e+000 1.062981e+000
    endloop
  endfacet
  facet normal 3.482639e-001 7.491174e-001 5.635028e-001
    outer loop
      vertex 3.594306e-001 1.106214e+000 1.062981e+000
      vertex 7.900164e-001 1.106214e+000 7.968639e-001
      vertex 4.355125e-001 1.340370e+000 7.046740e-001
    endloop
  endfacet
  facet normal -5.243029e-002 1.613639e-001 9.855013e-001
    outer loop
      vertex 0.000000e+000 0.000000e+000 1.575699e+000
      vertex 1.330583e-001 4.095114e-001 1.515725e+000
      vertex -3.483512e-001 2.530920e-001 1.515725e+000
    endloop
  endfacet
  facet normal 3.019550e-002 4.122325e-001 9.105781e-001
    outer loop
      vertex 1.330583e-001 4.095114e-001 1.515725e+000
      vertex 2.559878e-001 7.878494e-001 1.340369e+000
      vertex -2.177562e-001 6.701847e-001 1.409348e+000
    endloop
  endfacet
  facet normal -8.839936e-002 2.720653e-001 9.582098e-001
    outer loop
      vertex 1.330583e-001 4.095114e-001 1.515725e+000
      vertex -2.177562e-001 6.701847e-001 1.409348e+000
      vertex -3.483512e-001 2.530920e-001 1.515725e+000
    endloop
  endfacet
  facet normal -2.667328e-001 3.157547e-001 9.105781e-001
    outer loop
      vertex -3.483512e-001 2.530920e-001 1.515725e+000
      vertex -2.177562e-001 6.701847e-001 1.409348e+000
      vertex -6.701848e-001 4.869177e-001 1.340369e+000
    endloop
  endfacet
  facet normal 1.028591e-001 6.342282e-001 7.662732e-001
    outer loop
      vertex 2.559878e-001 7.878494e-001 1.340369e+000
      vertex 3.594306e-001 1.106214e+000 1.062981e+000
      vertex -9.578929e-002 1.054795e+000 1.166644e+000
    endloop
  endfacet
  facet normal -1.019863e-002 5.359489e-001 8.441889e-001
    outer loop
      vertex 2.559878e-001 7.878494e-001 1.340369e+000
      vertex -9.578929e-002 1.054795e+000 1.166644e+000
      vertex -2.177562e-001 6.701847e-001 1.409348e+000
    endloop
  endfacet
  facet normal -1.837737e-001 5.655972e-001 8.039447e-001
    outer loop
      vertex -2.177562e-001 6.701847e-001 1.409348e+000
      vertex -9.578929e-002 1.054795e+000 1.166644e+000
      vertex -5.424977e-001 9.096504e-001 1.166644e+000
    endloop
  endfacet
  facet normal -3.067720e-001 4.395864e-001 8.441888e-001
    outer loop
      vertex -2.177562e-001 6.701847e-001 1.409348e+000
      vertex -5.424977e-001 9.096504e-001 1.166644e+000
      vertex -6.701848e-001 4.869177e-001 1.340369e+000
    endloop
  endfacet
  facet normal -4.560047e-001 4.526424e-001 7.662732e-001
    outer loop
      vertex -6.701848e-001 4.869177e-001 1.340369e+000
      vertex -5.424977e-001 9.096504e-001 1.166644e+000
      vertex -9.410017e-001 6.836777e-001 1.062981e+000
    endloop
  endfacet
  facet normal 1.585687e-001 8.107531e-001 5.635028e-001
    outer loop
      vertex 3.594306e-001 1.106214e+000 1.062981e+000
      vertex 4.355125e-001 1.340370e+000 7.046740e-001
      vertex 1.107940e-002 1.359306e+000 7.968639e-001
    endloop
  endfacet
  facet normal 6.081384e-002 7.618203e-001 6.449276e-001
    outer loop
      vertex 3.594306e-001 1.106214e+000 1.062981e+000
      vertex 1.107940e-002 1.359306e+000 7.968639e-001
      vertex -9.578929e-002 1.054795e+000 1.166644e+000
    endloop
  endfacet
  facet normal -1.101536e-001 7.826346e-001 6.126575e-001
    outer loop
      vertex -9.578929e-002 1.054795e+000 1.166644e+000
      vertex 1.107940e-002 1.359306e+000 7.968639e-001
      vertex -4.141970e-001 1.274767e+000 8.283939e-001
    endloop
  endfacet
  facet normal -2.286208e-001 7.036223e-001 6.727914e-001
    outer loop
      vertex -9.578929e-002 1.054795e+000 1.166644e+000
      vertex -4.141970e-001 1.274767e+000 8.283939e-001
      vertex -5.424977e-001 9.096504e-001 1.166644e+000
    endloop
  endfacet
  facet normal -3.709052e-001 6.979113e-001 6.126575e-001
    outer loop
      vertex -5.424977e-001 9.096504e-001 1.166644e+000
      vertex -4.141970e-001 1.274767e+000 8.283939e-001
      vertex -8.079434e-001 1.093189e+000 7.968639e-001
    endloop
  endfacet
  facet normal -4.969861e-001 5.805801e-001 6.449276e-001
    outer loop
      vertex -5.424977e-001 9.096504e-001 1.166644e+000
      vertex -8.079434e-001 1.093189e+000 7.968639e-001
      vertex -9.410017e-001 6.836777e-001 1.062981e+000
    endloop
  endfacet
  facet normal -6.048335e-001 5.627087e-001 5.635028e-001
    outer loop
      vertex -9.410017e-001 6.836777e-001 1.062981e+000
      vertex -8.079434e-001 1.093189e+000 7.968639e-001
      vertex -1.140187e+000 8.283939e-001 7.046740e-001
    endloop
  endfacet
  facet normal -1.696680e-001 -2.082052e-008 9.855013e-001
    outer loop
      vertex 0.000000e+000 0.000000e+000 1.575699e+000
      vertex -3.483512e-001 2.530920e-001 1.515725e+000
      vertex -3.483512e-001 -2.530920e-001 1.515725e+000
    endloop
  endfacet
  facet normal -3.827256e-001 1.561044e-001 9.105781e-001
    outer loop
      vertex -3.483512e-001 2.530920e-001 1.515725e+000
      vertex -6.701848e-001 4.869177e-001 1.340369e+000
      vertex -7.046739e-001 -8.235276e-008 1.409348e+000
    endloop
  endfacet
  facet normal -2.860664e-001 -3.368515e-008 9.582098e-001
    outer loop
      vertex -3.483512e-001 2.530920e-001 1.515725e+000
      vertex -7.046739e-001 -8.235276e-008 1.409348e+000
      vertex -3.483512e-001 -2.530920e-001 1.515725e+000
    endloop
  endfacet
  facet normal -3.827255e-001 -1.561044e-001 9.105782e-001
    outer loop
      vertex -3.483512e-001 -2.530920e-001 1.515725e+000
      vertex -7.046739e-001 -8.235276e-008 1.409348e+000
      vertex -6.701847e-001 -4.869179e-001 1.340369e+000
    endloop
  endfacet
  facet normal -5.714017e-001 2.938121e-001 7.662732e-001
    outer loop
      vertex -6.701848e-001 4.869177e-001 1.340369e+000
      vertex -9.410017e-001 6.836777e-001 1.062981e+000
      vertex -1.032770e+000 2.348484e-001 1.166644e+000
    endloop
  endfacet
  facet normal -5.128692e-001 1.559177e-001 8.441889e-001
    outer loop
      vertex -6.701848e-001 4.869177e-001 1.340369e+000
      vertex -1.032770e+000 2.348484e-001 1.166644e+000
      vertex -7.046739e-001 -8.235276e-008 1.409348e+000
    endloop
  endfacet
  facet normal -5.947040e-001 -1.554739e-007 8.039447e-001
    outer loop
      vertex -7.046739e-001 -8.235276e-008 1.409348e+000
      vertex -1.032770e+000 2.348484e-001 1.166644e+000
      vertex -1.032770e+000 -2.348486e-001 1.166644e+000
    endloop
  endfacet
  facet normal -5.128693e-001 -1.559178e-001 8.441888e-001
    outer loop
      vertex -7.046739e-001 -8.235276e-008 1.409348e+000
      vertex -1.032770e+000 -2.348486e-001 1.166644e+000
      vertex -6.701847e-001 -4.869179e-001 1.340369e+000
    endloop
  endfacet
  facet normal -5.714017e-001 -2.938121e-001 7.662731e-001
    outer loop
      vertex -6.701847e-001 -4.869179e-001 1.340369e+000
      vertex -1.032770e+000 -2.348486e-001 1.166644e+000
      vertex -9.410016e-001 -6.836779e-001 1.062981e+000
    endloop
  endfacet
  facet normal -7.220716e-001 4.013442e-001 5.635028e-001
    outer loop
      vertex -9.410017e-001 6.836777e-001 1.062981e+000
      vertex -1.140187e+000 8.283939e-001 7.046740e-001
      vertex -1.289353e+000 4.305856e-001 7.968639e-001
    endloop
  endfacet
  facet normal -7.057416e-001 2.932528e-001 6.449276e-001
    outer loop
      vertex -9.410017e-001 6.836777e-001 1.062981e+000
      vertex -1.289353e+000 4.305856e-001 7.968639e-001
      vertex -1.032770e+000 2.348484e-001 1.166644e+000
    endloop
  endfacet
  facet normal -7.783692e-001 1.370850e-001 6.126574e-001
    outer loop
      vertex -1.032770e+000 2.348484e-001 1.166644e+000
      vertex -1.289353e+000 4.305856e-001 7.968639e-001
      vertex -1.340369e+000 -1.298862e-007 8.283939e-001
    endloop
  endfacet
  facet normal -7.398323e-001 -1.877697e-007 6.727913e-001
    outer loop
      vertex -1.032770e+000 2.348484e-001 1.166644e+000
      vertex -1.340369e+000 -1.298862e-007 8.283939e-001
      vertex -1.032770e+000 -2.348486e-001 1.166644e+000
    endloop
  endfacet
  facet normal -7.783691e-001 -1.370851e-001 6.126575e-001
    outer loop
      vertex -1.032770e+000 -2.348486e-001 1.166644e+000
      vertex -1.340369e+000 -1.298862e-007 8.283939e-001
      vertex -1.289353e+000 -4.305859e-001 7.968639e-001
    endloop
  endfacet
  facet normal -7.057416e-001 -2.932529e-001 6.449276e-001
    outer loop
      vertex -1.032770e+000 -2.348486e-001 1.166644e+000
      vertex -1.289353e+000 -4.305859e-001 7.968639e-001
      vertex -9.410016e-001 -6.836779e-001 1.062981e+000
    endloop
  endfacet
  facet normal -7.220716e-001 -4.013442e-001 5.635028e-001
    outer loop
      vertex -9.410016e-001 -6.836779e-001 1.062981e+000
      vertex -1.289353e+000 -4.305859e-001 7.968639e-001
      vertex -1.140186e+000 -8.283941e-001 7.046740e-001
    endloop
  endfacet
  facet normal -5.243027e-002 -1.613639e-001 9.855013e-001
    outer loop
      vertex 0.000000e+000 0.000000e+000 1.575699e+000
      vertex -3.483512e-001 -2.530920e-001 1.515725e+000
      vertex 1.330584e-001 -4.095114e-001 1.515725e+000
    endloop
  endfacet
  facet normal -2.667328e-001 -3.157547e-001 9.105782e-001
    outer loop
      vertex -3.483512e-001 -2.530920e-001 1.515725e+000
      vertex -6.701847e-001 -4.869179e-001 1.340369e+000
      vertex -2.177561e-001 -6.701848e-001 1.409348e+000
    endloop
  endfacet
  facet normal -8.839933e-002 -2.720653e-001 9.582098e-001
    outer loop
      vertex -3.483512e-001 -2.530920e-001 1.515725e+000
      vertex -2.177561e-001 -6.701848e-001 1.409348e+000
      vertex 1.330584e-001 -4.095114e-001 1.515725e+000
    endloop
  endfacet
  facet normal 3.019554e-002 -4.122325e-001 9.105781e-001
    outer loop
      vertex 1.330584e-001 -4.095114e-001 1.515725e+000
      vertex -2.177561e-001 -6.701848e-001 1.409348e+000
      vertex 2.559879e-001 -7.878494e-001 1.340369e+000
    endloop
  endfacet
  facet normal -4.560048e-001 -4.526424e-001 7.662731e-001
    outer loop
      vertex -6.701847e-001 -4.869179e-001 1.340369e+000
      vertex -9.410016e-001 -6.836779e-001 1.062981e+000
      vertex -5.424975e-001 -9.096505e-001 1.166645e+000
    endloop
  endfacet
  facet normal -3.067718e-001 -4.395862e-001 8.441889e-001
    outer loop
      vertex -6.701847e-001 -4.869179e-001 1.340369e+000
      vertex -5.424975e-001 -9.096505e-001 1.166645e+000
      vertex -2.177561e-001 -6.701848e-001 1.409348e+000
    endloop
  endfacet
  facet normal -1.837735e-001 -5.655970e-001 8.039448e-001
    outer loop
      vertex -2.177561e-001 -6.701848e-001 1.409348e+000
      vertex -5.424975e-001 -9.096505e-001 1.166645e+000
      vertex -9.578916e-002 -1.054795e+000 1.166645e+000
    endloop
  endfacet
  facet normal -1.019851e-002 -5.359487e-001 8.441889e-001
    outer loop
      vertex -2.177561e-001 -6.701848e-001 1.409348e+000
      vertex -9.578916e-002 -1.054795e+000 1.166645e+000
      vertex 2.559879e-001 -7.878494e-001 1.340369e+000
    endloop
  endfacet
  facet normal 1.028593e-001 -6.342281e-001 7.662732e-001
    outer loop
      vertex 2.559879e-001 -7.878494e-001 1.340369e+000
      vertex -9.578916e-002 -1.054795e+000 1.166645e+000
      vertex 3.594308e-001 -1.106214e+000 1.062981e+000
    endloop
  endfacet
  facet normal -6.048333e-001 -5.627088e-001 5.635028e-001
    outer loop
      vertex -9.410016e-001 -6.836779e-001 1.062981e+000
      vertex -1.140186e+000 -8.283941e-001 7.046740e-001
      vertex -8.079432e-001 -1.093189e+000 7.968639e-001
    endloop
  endfacet
  facet normal -4.969862e-001 -5.805801e-001 6.449275e-001
    outer loop
      vertex -9.410016e-001 -6.836779e-001 1.062981e+000
      vertex -8.079432e-001 -1.093189e+000 7.968639e-001
      vertex -5.424975e-001 -9.096505e-001 1.166645e+000
    endloop
  endfacet
  facet normal -3.709050e-001 -6.979114e-001 6.126574e-001
    outer loop
      vertex -5.424975e-001 -9.096505e-001 1.166645e+000
      vertex -8.079432e-001 -1.093189e+000 7.968639e-001
      vertex -4.141968e-001 -1.274767e+000 8.283939e-001
    endloop
  endfacet
  facet normal -2.286207e-001 -7.036223e-001 6.727913e-001
    outer loop
      vertex -5.424975e-001 -9.096505e-001 1.166645e+000
      vertex -4.141968e-001 -1.274767e+000 8.283939e-001
      vertex -9.578916e-002 -1.054795e+000 1.166645e+000
    endloop
  endfacet
  facet normal -1.101534e-001 -7.826348e-001 6.126574e-001
    outer loop
      vertex -9.578916e-002 -1.054795e+000 1.166645e+000
      vertex -4.141968e-001 -1.274767e+000 8.283939e-001
      vertex 1.107960e-002 -1.359306e+000 7.968639e-001
    endloop
  endfacet
  facet normal 6.081397e-002 -7.618203e-001 6.449275e-001
    outer loop
      vertex -9.578916e-002 -1.054795e+000 1.166645e+000
      vertex 1.107960e-002 -1.359306e+000 7.968639e-001
      vertex 3.594308e-001 -1.106214e+000 1.062981e+000
    endloop
  endfacet
  facet normal 1.585687e-001 -8.107531e-001 5.635028e-001
    outer loop
      vertex 3.594308e-001 -1.106214e+000 1.062981e+000
      vertex 1.107960e-002 -1.359306e+000 7.968639e-001
      vertex 4.355127e-001 -1.340370e+000 7.046740e-001
    endloop
  endfacet
  facet normal 1.372643e-001 -9.972833e-002 9.855013e-001
    outer loop
      vertex 0.000000e+000 0.000000e+000 1.575699e+000
      vertex 1.330584e-001 -4.095114e-001 1.515725e+000
      vertex 4.305858e-001 0.000000e+000 1.515725e+000
    endloop
  endfacet
  facet normal 2.178755e-001 -3.512515e-001 9.105782e-001
    outer loop
      vertex 1.330584e-001 -4.095114e-001 1.515725e+000
      vertex 2.559879e-001 -7.878494e-001 1.340369e+000
      vertex 5.700932e-001 -4.141970e-001 1.409348e+000
    endloop
  endfacet
  facet normal 2.314326e-001 -1.681456e-001 9.582098e-001
    outer loop
      vertex 1.330584e-001 -4.095114e-001 1.515725e+000
      vertex 5.700932e-001 -4.141970e-001 1.409348e+000
      vertex 4.305858e-001 0.000000e+000 1.515725e+000
    endloop
  endfacet
  facet normal 4.013874e-001 -9.866921e-002 9.105781e-001
    outer loop
      vertex 4.305858e-001 0.000000e+000 1.515725e+000
      vertex 5.700932e-001 -4.141970e-001 1.409348e+000
      vertex 8.283939e-001 0.000000e+000 1.340369e+000
    endloop
  endfacet
  facet normal 2.895750e-001 -5.735605e-001 7.662732e-001
    outer loop
      vertex 2.559879e-001 -7.878494e-001 1.340369e+000
      vertex 3.594308e-001 -1.106214e+000 1.062981e+000
      vertex 6.974881e-001 -7.970434e-001 1.166645e+000
    endloop
  endfacet
  facet normal 3.232735e-001 -4.275970e-001 8.441890e-001
    outer loop
      vertex 2.559879e-001 -7.878494e-001 1.340369e+000
      vertex 6.974881e-001 -7.970434e-001 1.166645e+000
      vertex 5.700932e-001 -4.141970e-001 1.409348e+000
    endloop
  endfacet
  facet normal 4.811256e-001 -3.495581e-001 8.039449e-001
    outer loop
      vertex 5.700932e-001 -4.141970e-001 1.409348e+000
      vertex 6.974881e-001 -7.970434e-001 1.166645e+000
      vertex 9.735690e-001 -4.170505e-001 1.166645e+000
    endloop
  endfacet
  facet normal 5.065659e-001 -1.753166e-001 8.441890e-001
    outer loop
      vertex 5.700932e-001 -4.141970e-001 1.409348e+000
      vertex 9.735690e-001 -4.170505e-001 1.166645e+000
      vertex 8.283939e-001 0.000000e+000 1.340369e+000
    endloop
  endfacet
  facet normal 6.349720e-001 -9.816217e-002 7.662733e-001
    outer loop
      vertex 8.283939e-001 0.000000e+000 1.340369e+000
      vertex 9.735690e-001 -4.170505e-001 1.166645e+000
      vertex 1.163142e+000 0.000000e+000 1.062981e+000
    endloop
  endfacet
  facet normal 3.482639e-001 -7.491174e-001 5.635028e-001
    outer loop
      vertex 3.594308e-001 -1.106214e+000 1.062981e+000
      vertex 4.355127e-001 -1.340370e+000 7.046740e-001
      vertex 7.900165e-001 -1.106214e+000 7.968639e-001
    endloop
  endfacet
  facet normal 3.985871e-001 -6.520711e-001 6.449276e-001
    outer loop
      vertex 3.594308e-001 -1.106214e+000 1.062981e+000
      vertex 7.900165e-001 -1.106214e+000 7.968639e-001
      vertex 6.974881e-001 -7.970434e-001 1.166645e+000
    endloop
  endfacet
  facet normal 5.491374e-001 -5.684181e-001 6.126574e-001
    outer loop
      vertex 6.974881e-001 -7.970434e-001 1.166645e+000
      vertex 7.900165e-001 -1.106214e+000 7.968639e-001
      vertex 1.084382e+000 -7.878494e-001 8.283939e-001
    endloop
  endfacet
  facet normal 5.985371e-001 -4.348625e-001 6.727912e-001
    outer loop
      vertex 6.974881e-001 -7.970434e-001 1.166645e+000
      vertex 1.084382e+000 -7.878494e-001 8.283939e-001
      vertex 9.735690e-001 -4.170505e-001 1.166645e+000
    endloop
  endfacet
  facet normal 7.102903e-001 -3.466099e-001 6.126575e-001
    outer loop
      vertex 9.735690e-001 -4.170505e-001 1.166645e+000
      vertex 1.084382e+000 -7.878494e-001 8.283939e-001
      vertex 1.296201e+000 -4.095114e-001 7.968639e-001
    endloop
  endfacet
  facet normal 7.433266e-001 -1.775777e-001 6.449277e-001
    outer loop
      vertex 9.735690e-001 -4.170505e-001 1.166645e+000
      vertex 1.296201e+000 -4.095114e-001 7.968639e-001
      vertex 1.163142e+000 0.000000e+000 1.062981e+000
    endloop
  endfacet
  facet normal 8.200725e-001 -9.972834e-002 5.635027e-001
    outer loop
      vertex 1.163142e+000 0.000000e+000 1.062981e+000
      vertex 1.296201e+000 -4.095114e-001 7.968639e-001
      vertex 1.409348e+000 0.000000e+000 7.046740e-001
    endloop
  endfacet
  facet normal 9.573371e-001 0.000000e+000 2.889733e-001
    outer loop
      vertex 1.409348e+000 0.000000e+000 7.046740e-001
      vertex 1.511493e+000 -2.530918e-001 3.662781e-001
      vertex 1.511493e+000 2.530920e-001 3.662781e-001
    endloop
  endfacet
  facet normal 9.856060e-001 -1.561042e-001 6.490324e-002
    outer loop
      vertex 1.511493e+000 -2.530918e-001 3.662781e-001
      vertex 1.498579e+000 -4.869175e-001 0.000000e+000
      vertex 1.575699e+000 1.482350e-007 0.000000e+000
    endloop
  endfacet
  facet normal 9.849817e-001 -1.016556e-008 1.726591e-001
    outer loop
      vertex 1.511493e+000 -2.530918e-001 3.662781e-001
      vertex 1.575699e+000 1.482350e-007 0.000000e+000
      vertex 1.511493e+000 2.530920e-001 3.662781e-001
    endloop
  endfacet
  facet normal 9.856059e-001 1.561047e-001 6.490295e-002
    outer loop
      vertex 1.511493e+000 2.530920e-001 3.662781e-001
      vertex 1.575699e+000 1.482350e-007 0.000000e+000
      vertex 1.498579e+000 4.869177e-001 0.000000e+000
    endloop
  endfacet
  facet normal 9.409142e-001 -2.938122e-001 -1.683893e-001
    outer loop
      vertex 1.498579e+000 -4.869175e-001 0.000000e+000
      vertex 1.371588e+000 -6.836774e-001 -3.662781e-001
      vertex 1.505347e+000 -2.348483e-001 -4.019983e-001
    endloop
  endfacet
  facet normal 9.844276e-001 -1.559176e-001 -8.119117e-002
    outer loop
      vertex 1.498579e+000 -4.869175e-001 0.000000e+000
      vertex 1.505347e+000 -2.348483e-001 -4.019983e-001
      vertex 1.575699e+000 1.482350e-007 0.000000e+000
    endloop
  endfacet
  facet normal 9.850298e-001 2.526452e-007 -1.723842e-001
    outer loop
      vertex 1.575699e+000 1.482350e-007 0.000000e+000
      vertex 1.505347e+000 -2.348483e-001 -4.019983e-001
      vertex 1.505347e+000 2.348486e-001 -4.019983e-001
    endloop
  endfacet
  facet normal 9.844275e-001 1.559180e-001 -8.119117e-002
    outer loop
      vertex 1.575699e+000 1.482350e-007 0.000000e+000
      vertex 1.505347e+000 2.348486e-001 -4.019983e-001
      vertex 1.498579e+000 4.869177e-001 0.000000e+000
    endloop
  endfacet
  facet normal 9.409140e-001 2.938126e-001 -1.683893e-001
    outer loop
      vertex 1.498579e+000 4.869177e-001 0.000000e+000
      vertex 1.505347e+000 2.348486e-001 -4.019983e-001
      vertex 1.371587e+000 6.836777e-001 -3.662781e-001
    endloop
  endfacet
  facet normal 8.269325e-001 -4.013441e-001 -3.938343e-001
    outer loop
      vertex 1.371588e+000 -6.836774e-001 -3.662781e-001
      vertex 1.140187e+000 -8.283936e-001 -7.046740e-001
      vertex 1.289353e+000 -4.305854e-001 -7.968639e-001
    endloop
  endfacet
  facet normal 8.924580e-001 -2.932529e-001 -3.428141e-001
    outer loop
      vertex 1.371588e+000 -6.836774e-001 -3.662781e-001
      vertex 1.289353e+000 -4.305854e-001 -7.968639e-001
      vertex 1.505347e+000 -2.348483e-001 -4.019983e-001
    endloop
  endfacet
  facet normal 8.960747e-001 -1.370849e-001 -4.222059e-001
    outer loop
      vertex 1.505347e+000 -2.348483e-001 -4.019983e-001
      vertex 1.289353e+000 -4.305854e-001 -7.968639e-001
      vertex 1.340370e+000 2.164771e-007 -8.283938e-001
    endloop
  endfacet
  facet normal 9.326259e-001 2.367009e-007 -3.608448e-001
    outer loop
      vertex 1.505347e+000 -2.348483e-001 -4.019983e-001
      vertex 1.340370e+000 2.164771e-007 -8.283938e-001
      vertex 1.505347e+000 2.348486e-001 -4.019983e-001
    endloop
  endfacet
  facet normal 8.960747e-001 1.370854e-001 -4.222059e-001
    outer loop
      vertex 1.505347e+000 2.348486e-001 -4.019983e-001
      vertex 1.340370e+000 2.164771e-007 -8.283938e-001
      vertex 1.289353e+000 4.305859e-001 -7.968639e-001
    endloop
  endfacet
  facet normal 8.924578e-001 2.932533e-001 -3.428140e-001
    outer loop
      vertex 1.505347e+000 2.348486e-001 -4.019983e-001
      vertex 1.289353e+000 4.305859e-001 -7.968639e-001
      vertex 1.371587e+000 6.836777e-001 -3.662781e-001
    endloop
  endfacet
  facet normal 8.269325e-001 4.013443e-001 -3.938341e-001
    outer loop
      vertex 1.371587e+000 6.836777e-001 -3.662781e-001
      vertex 1.289353e+000 4.305859e-001 -7.968639e-001
      vertex 1.140186e+000 8.283939e-001 -7.046740e-001
    endloop
  endfacet
  facet normal 2.958336e-001 9.104816e-001 2.889735e-001
    outer loop
      vertex 4.355125e-001 1.340370e+000 7.046740e-001
      vertex 7.077818e-001 1.359306e+000 3.662781e-001
      vertex 2.263723e-001 1.515725e+000 3.662781e-001
    endloop
  endfacet
  facet normal 4.530330e-001 8.891280e-001 6.490315e-002
    outer loop
      vertex 7.077818e-001 1.359306e+000 3.662781e-001
      vertex 9.261726e-001 1.274767e+000 0.000000e+000
      vertex 4.869176e-001 1.498579e+000 0.000000e+000
    endloop
  endfacet
  facet normal 3.043762e-001 9.367732e-001 1.726591e-001
    outer loop
      vertex 7.077818e-001 1.359306e+000 3.662781e-001
      vertex 4.869176e-001 1.498579e+000 0.000000e+000
      vertex 2.263723e-001 1.515725e+000 3.662781e-001
    endloop
  endfacet
  facet normal 1.561049e-001 9.856058e-001 6.490289e-002
    outer loop
      vertex 2.263723e-001 1.515725e+000 3.662781e-001
      vertex 4.869176e-001 1.498579e+000 0.000000e+000
      vertex -4.329540e-008 1.575699e+000 0.000000e+000
    endloop
  endfacet
  facet normal 5.701904e-001 8.040695e-001 -1.683900e-001
    outer loop
      vertex 9.261726e-001 1.274767e+000 0.000000e+000
      vertex 1.074060e+000 1.093189e+000 -3.662781e-001
      vertex 6.885319e-001 1.359098e+000 -4.019983e-001
    endloop
  endfacet
  facet normal 4.524914e-001 8.880650e-001 -8.119188e-002
    outer loop
      vertex 9.261726e-001 1.274767e+000 0.000000e+000
      vertex 6.885319e-001 1.359098e+000 -4.019983e-001
      vertex 4.869176e-001 1.498579e+000 0.000000e+000
    endloop
  endfacet
  facet normal 3.043909e-001 9.368189e-001 -1.723848e-001
    outer loop
      vertex 4.869176e-001 1.498579e+000 0.000000e+000
      vertex 6.885319e-001 1.359098e+000 -4.019983e-001
      vertex 2.418236e-001 1.504242e+000 -4.019983e-001
    endloop
  endfacet
  facet normal 1.559182e-001 9.844275e-001 -8.119179e-002
    outer loop
      vertex 4.869176e-001 1.498579e+000 0.000000e+000
      vertex 2.418236e-001 1.504242e+000 -4.019983e-001
      vertex -4.329540e-008 1.575699e+000 0.000000e+000
    endloop
  endfacet
  facet normal 1.132692e-002 9.856554e-001 -1.683895e-001
    outer loop
      vertex -4.329540e-008 1.575699e+000 0.000000e+000
      vertex 2.418236e-001 1.504242e+000 -4.019983e-001
      vertex -2.263724e-001 1.515725e+000 -3.662781e-001
    endloop
  endfacet
  facet normal 6.372372e-001 6.624375e-001 -3.938341e-001
    outer loop
      vertex 1.074060e+000 1.093189e+000 -3.662781e-001
      vertex 1.140186e+000 8.283939e-001 -7.046740e-001
      vertex 8.079433e-001 1.093189e+000 -7.968639e-001
    endloop
  endfacet
  facet normal 5.546847e-001 7.581580e-001 -3.428139e-001
    outer loop
      vertex 1.074060e+000 1.093189e+000 -3.662781e-001
      vertex 8.079433e-001 1.093189e+000 -7.968639e-001
      vertex 6.885319e-001 1.359098e+000 -4.019983e-001
    endloop
  endfacet
  facet normal 4.072782e-001 8.098561e-001 -4.222055e-001
    outer loop
      vertex 6.885319e-001 1.359098e+000 -4.019983e-001
      vertex 8.079433e-001 1.093189e+000 -7.968639e-001
      vertex 4.141969e-001 1.274767e+000 -8.283939e-001
    endloop
  endfacet
  facet normal 2.881973e-001 8.869801e-001 -3.608444e-001
    outer loop
      vertex 6.885319e-001 1.359098e+000 -4.019983e-001
      vertex 4.141969e-001 1.274767e+000 -8.283939e-001
      vertex 2.418236e-001 1.504242e+000 -4.019983e-001
    endloop
  endfacet
  facet normal 1.465267e-001 8.945795e-001 -4.222055e-001
    outer loop
      vertex 2.418236e-001 1.504242e+000 -4.019983e-001
      vertex 4.141969e-001 1.274767e+000 -8.283939e-001
      vertex -1.107949e-002 1.359306e+000 -7.968639e-001
    endloop
  endfacet
  facet normal -3.114958e-003 9.393981e-001 -3.428140e-001
    outer loop
      vertex 2.418236e-001 1.504242e+000 -4.019983e-001
      vertex -1.107949e-002 1.359306e+000 -7.968639e-001
      vertex -2.263724e-001 1.515725e+000 -3.662781e-001
    endloop
  endfacet
  facet normal -1.261649e-001 9.104816e-001 -3.938344e-001
    outer loop
      vertex -2.263724e-001 1.515725e+000 -3.662781e-001
      vertex -1.107949e-002 1.359306e+000 -7.968639e-001
      vertex -4.355125e-001 1.340370e+000 -7.046740e-001
    endloop
  endfacet
  facet normal -7.745020e-001 5.627087e-001 2.889734e-001
    outer loop
      vertex -1.140187e+000 8.283939e-001 7.046740e-001
      vertex -1.074060e+000 1.093189e+000 3.662781e-001
      vertex -1.371588e+000 6.836776e-001 3.662781e-001
    endloop
  endfacet
  facet normal -7.056159e-001 7.056158e-001 6.490339e-002
    outer loop
      vertex -1.074060e+000 1.093189e+000 3.662781e-001
      vertex -9.261727e-001 1.274767e+000 0.000000e+000
      vertex -1.274767e+000 9.261726e-001 0.000000e+000
    endloop
  endfacet
  facet normal -7.968668e-001 5.789576e-001 1.726594e-001
    outer loop
      vertex -1.074060e+000 1.093189e+000 3.662781e-001
      vertex -1.274767e+000 9.261726e-001 0.000000e+000
      vertex -1.371588e+000 6.836776e-001 3.662781e-001
    endloop
  endfacet
  facet normal -8.891281e-001 4.530330e-001 6.490292e-002
    outer loop
      vertex -1.371588e+000 6.836776e-001 3.662781e-001
      vertex -1.274767e+000 9.261726e-001 0.000000e+000
      vertex -1.498579e+000 4.869176e-001 0.000000e+000
    endloop
  endfacet
  facet normal -5.885168e-001 7.907547e-001 -1.683893e-001
    outer loop
      vertex -9.261727e-001 1.274767e+000 0.000000e+000
      vertex -7.077820e-001 1.359306e+000 -3.662781e-001
      vertex -1.079811e+000 1.074818e+000 -4.019983e-001
    endloop
  endfacet
  facet normal -7.047724e-001 7.047722e-001 -8.119120e-002
    outer loop
      vertex -9.261727e-001 1.274767e+000 0.000000e+000
      vertex -1.079811e+000 1.074818e+000 -4.019983e-001
      vertex -1.274767e+000 9.261726e-001 0.000000e+000
    endloop
  endfacet
  facet normal -7.969059e-001 5.789859e-001 -1.723843e-001
    outer loop
      vertex -1.274767e+000 9.261726e-001 0.000000e+000
      vertex -1.079811e+000 1.074818e+000 -4.019983e-001
      vertex -1.355892e+000 6.948245e-001 -4.019983e-001
    endloop
  endfacet
  facet normal -8.880650e-001 4.524914e-001 -8.119094e-002
    outer loop
      vertex -1.274767e+000 9.261726e-001 0.000000e+000
      vertex -1.355892e+000 6.948245e-001 -4.019983e-001
      vertex -1.498579e+000 4.869176e-001 0.000000e+000
    endloop
  endfacet
  facet normal -9.339142e-001 3.153560e-001 -1.683889e-001
    outer loop
      vertex -1.498579e+000 4.869176e-001 0.000000e+000
      vertex -1.355892e+000 6.948245e-001 -4.019983e-001
      vertex -1.511493e+000 2.530918e-001 -3.662781e-001
    endloop
  endfacet
  facet normal -4.330982e-001 8.107530e-001 -3.938344e-001
    outer loop
      vertex -7.077820e-001 1.359306e+000 -3.662781e-001
      vertex -4.355125e-001 1.340370e+000 -7.046740e-001
      vertex -7.900164e-001 1.106214e+000 -7.968639e-001
    endloop
  endfacet
  facet normal -5.496436e-001 7.618204e-001 -3.428143e-001
    outer loop
      vertex -7.077820e-001 1.359306e+000 -3.662781e-001
      vertex -7.900164e-001 1.106214e+000 -7.968639e-001
      vertex -1.079811e+000 1.074818e+000 -4.019983e-001
    endloop
  endfacet
  facet normal -6.443630e-001 6.376035e-001 -4.222062e-001
    outer loop
      vertex -1.079811e+000 1.074818e+000 -4.019983e-001
      vertex -7.900164e-001 1.106214e+000 -7.968639e-001
      vertex -1.084382e+000 7.878494e-001 -8.283939e-001
    endloop
  endfacet
  facet normal -7.545101e-001 5.481836e-001 -3.608451e-001
    outer loop
      vertex -1.079811e+000 1.074818e+000 -4.019983e-001
      vertex -1.084382e+000 7.878494e-001 -8.283939e-001
      vertex -1.355892e+000 6.948245e-001 -4.019983e-001
    endloop
  endfacet
  facet normal -8.055161e-001 4.157953e-001 -4.222062e-001
    outer loop
      vertex -1.355892e+000 6.948245e-001 -4.019983e-001
      vertex -1.084382e+000 7.878494e-001 -8.283939e-001
      vertex -1.296200e+000 4.095113e-001 -7.968639e-001
    endloop
  endfacet
  facet normal -8.943835e-001 2.873265e-001 -3.428141e-001
    outer loop
      vertex -1.355892e+000 6.948245e-001 -4.019983e-001
      vertex -1.296200e+000 4.095113e-001 -7.968639e-001
      vertex -1.511493e+000 2.530918e-001 -3.662781e-001
    endloop
  endfacet
  facet normal -9.049067e-001 1.613643e-001 -3.938342e-001
    outer loop
      vertex -1.511493e+000 2.530918e-001 -3.662781e-001
      vertex -1.296200e+000 4.095113e-001 -7.968639e-001
      vertex -1.409348e+000 -1.232091e-007 -7.046740e-001
    endloop
  endfacet
  facet normal -7.745022e-001 -5.627085e-001 2.889733e-001
    outer loop
      vertex -1.140186e+000 -8.283941e-001 7.046740e-001
      vertex -1.371587e+000 -6.836779e-001 3.662781e-001
      vertex -1.074060e+000 -1.093189e+000 3.662781e-001
    endloop
  endfacet
  facet normal -8.891277e-001 -4.530336e-001 6.490312e-002
    outer loop
      vertex -1.371587e+000 -6.836779e-001 3.662781e-001
      vertex -1.498579e+000 -4.869179e-001 0.000000e+000
      vertex -1.274767e+000 -9.261726e-001 0.000000e+000
    endloop
  endfacet
  facet normal -7.968670e-001 -5.789576e-001 1.726589e-001
    outer loop
      vertex -1.371587e+000 -6.836779e-001 3.662781e-001
      vertex -1.274767e+000 -9.261726e-001 0.000000e+000
      vertex -1.074060e+000 -1.093189e+000 3.662781e-001
    endloop
  endfacet
  facet normal -7.056164e-001 -7.056155e-001 6.490299e-002
    outer loop
      vertex -1.074060e+000 -1.093189e+000 3.662781e-001
      vertex -1.274767e+000 -9.261726e-001 0.000000e+000
      vertex -9.261726e-001 -1.274767e+000 0.000000e+000
    endloop
  endfacet
  facet normal -9.339139e-001 -3.153564e-001 -1.683895e-001
    outer loop
      vertex -1.498579e+000 -4.869179e-001 0.000000e+000
      vertex -1.511493e+000 -2.530921e-001 -3.662781e-001
      vertex -1.355892e+000 -6.948246e-001 -4.019983e-001
    endloop
  endfacet
  facet normal -8.880647e-001 -4.524920e-001 -8.119142e-002
    outer loop
      vertex -1.498579e+000 -4.869179e-001 0.000000e+000
      vertex -1.355892e+000 -6.948246e-001 -4.019983e-001
      vertex -1.274767e+000 -9.261726e-001 0.000000e+000
    endloop
  endfacet
  facet normal -7.969060e-001 -5.789858e-001 -1.723842e-001
    outer loop
      vertex -1.274767e+000 -9.261726e-001 0.000000e+000
      vertex -1.355892e+000 -6.948246e-001 -4.019983e-001
      vertex -1.079811e+000 -1.074818e+000 -4.019983e-001
    endloop
  endfacet
  facet normal -7.047727e-001 -7.047719e-001 -8.119127e-002
    outer loop
      vertex -1.274767e+000 -9.261726e-001 0.000000e+000
      vertex -1.079811e+000 -1.074818e+000 -4.019983e-001
      vertex -9.261726e-001 -1.274767e+000 0.000000e+000
    endloop
  endfacet
  facet normal -5.885169e-001 -7.907546e-001 -1.683896e-001
    outer loop
      vertex -9.261726e-001 -1.274767e+000 0.000000e+000
      vertex -1.079811e+000 -1.074818e+000 -4.019983e-001
      vertex -7.077820e-001 -1.359306e+000 -3.662781e-001
    endloop
  endfacet
  facet normal -9.049068e-001 -1.613643e-001 -3.938340e-001
    outer loop
      vertex -1.511493e+000 -2.530921e-001 -3.662781e-001
      vertex -1.409348e+000 -1.232091e-007 -7.046740e-001
      vertex -1.296200e+000 -4.095115e-001 -7.968639e-001
    endloop
  endfacet
  facet normal -8.943835e-001 -2.873272e-001 -3.428137e-001
    outer loop
      vertex -1.511493e+000 -2.530921e-001 -3.662781e-001
      vertex -1.296200e+000 -4.095115e-001 -7.968639e-001
      vertex -1.355892e+000 -6.948246e-001 -4.019983e-001
    endloop
  endfacet
  facet normal -8.055164e-001 -4.157955e-001 -4.222055e-001
    outer loop
      vertex -1.355892e+000 -6.948246e-001 -4.019983e-001
      vertex -1.296200e+000 -4.095115e-001 -7.968639e-001
      vertex -1.084382e+000 -7.878494e-001 -8.283939e-001
    endloop
  endfacet
  facet normal -7.545104e-001 -5.481836e-001 -3.608446e-001
    outer loop
      vertex -1.355892e+000 -6.948246e-001 -4.019983e-001
      vertex -1.084382e+000 -7.878494e-001 -8.283939e-001
      vertex -1.079811e+000 -1.074818e+000 -4.019983e-001
    endloop
  endfacet
  facet normal -6.443632e-001 -6.376036e-001 -4.222058e-001
    outer loop
      vertex -1.079811e+000 -1.074818e+000 -4.019983e-001
      vertex -1.084382e+000 -7.878494e-001 -8.283939e-001
      vertex -7.900165e-001 -1.106214e+000 -7.968639e-001
    endloop
  endfacet
  facet normal -5.496438e-001 -7.618203e-001 -3.428140e-001
    outer loop
      vertex -1.079811e+000 -1.074818e+000 -4.019983e-001
      vertex -7.900165e-001 -1.106214e+000 -7.968639e-001
      vertex -7.077820e-001 -1.359306e+000 -3.662781e-001
    endloop
  endfacet
  facet normal -4.330981e-001 -8.107531e-001 -3.938343e-001
    outer loop
      vertex -7.077820e-001 -1.359306e+000 -3.662781e-001
      vertex -7.900165e-001 -1.106214e+000 -7.968639e-001
      vertex -4.355126e-001 -1.340370e+000 -7.046740e-001
    endloop
  endfacet
  facet normal 2.958334e-001 -9.104817e-001 2.889735e-001
    outer loop
      vertex 4.355127e-001 -1.340370e+000 7.046740e-001
      vertex 2.263724e-001 -1.515725e+000 3.662781e-001
      vertex 7.077822e-001 -1.359306e+000 3.662782e-001
    endloop
  endfacet
  facet normal 1.561048e-001 -9.856058e-001 6.490292e-002
    outer loop
      vertex 2.263724e-001 -1.515725e+000 3.662781e-001
      vertex 2.164770e-008 -1.575699e+000 0.000000e+000
      vertex 4.869179e-001 -1.498579e+000 0.000000e+000
    endloop
  endfacet
  facet normal 3.043760e-001 -9.367732e-001 1.726591e-001
    outer loop
      vertex 2.263724e-001 -1.515725e+000 3.662781e-001
      vertex 4.869179e-001 -1.498579e+000 0.000000e+000
      vertex 7.077822e-001 -1.359306e+000 3.662782e-001
    endloop
  endfacet
  facet normal 4.530329e-001 -8.891281e-001 6.490307e-002
    outer loop
      vertex 7.077822e-001 -1.359306e+000 3.662782e-001
      vertex 4.869179e-001 -1.498579e+000 0.000000e+000
      vertex 9.261730e-001 -1.274767e+000 0.000000e+000
    endloop
  endfacet
  facet normal 1.132689e-002 -9.856554e-001 -1.683895e-001
    outer loop
      vertex 2.164770e-008 -1.575699e+000 0.000000e+000
      vertex -2.263724e-001 -1.515725e+000 -3.662781e-001
      vertex 2.418238e-001 -1.504242e+000 -4.019983e-001
    endloop
  endfacet
  facet normal 1.559182e-001 -9.844275e-001 -8.119176e-002
    outer loop
      vertex 2.164770e-008 -1.575699e+000 0.000000e+000
      vertex 2.418238e-001 -1.504242e+000 -4.019983e-001
      vertex 4.869179e-001 -1.498579e+000 0.000000e+000
    endloop
  endfacet
  facet normal 3.043908e-001 -9.368190e-001 -1.723847e-001
    outer loop
      vertex 4.869179e-001 -1.498579e+000 0.000000e+000
      vertex 2.418238e-001 -1.504242e+000 -4.019983e-001
      vertex 6.885324e-001 -1.359098e+000 -4.019983e-001
    endloop
  endfacet
  facet normal 4.524913e-001 -8.880650e-001 -8.119173e-002
    outer loop
      vertex 4.869179e-001 -1.498579e+000 0.000000e+000
      vertex 6.885324e-001 -1.359098e+000 -4.019983e-001
      vertex 9.261730e-001 -1.274767e+000 0.000000e+000
    endloop
  endfacet
  facet normal 5.701906e-001 -8.040693e-001 -1.683900e-001
    outer loop
      vertex 9.261730e-001 -1.274767e+000 0.000000e+000
      vertex 6.885324e-001 -1.359098e+000 -4.019983e-001
      vertex 1.074060e+000 -1.093189e+000 -3.662782e-001
    endloop
  endfacet
  facet normal -1.261650e-001 -9.104816e-001 -3.938344e-001
    outer loop
      vertex -2.263724e-001 -1.515725e+000 -3.662781e-001
      vertex -4.355126e-001 -1.340370e+000 -7.046740e-001
      vertex -1.107944e-002 -1.359306e+000 -7.968639e-001
    endloop
  endfacet
  facet normal -3.114999e-003 -9.393981e-001 -3.428140e-001
    outer loop
      vertex -2.263724e-001 -1.515725e+000 -3.662781e-001
      vertex -1.107944e-002 -1.359306e+000 -7.968639e-001
      vertex 2.418238e-001 -1.504242e+000 -4.019983e-001
    endloop
  endfacet
  facet normal 1.465265e-001 -8.945795e-001 -4.222054e-001
    outer loop
      vertex 2.418238e-001 -1.504242e+000 -4.019983e-001
      vertex -1.107944e-002 -1.359306e+000 -7.968639e-001
      vertex 4.141971e-001 -1.274767e+000 -8.283941e-001
    endloop
  endfacet
  facet normal 2.881972e-001 -8.869802e-001 -3.608443e-001
    outer loop
      vertex 2.418238e-001 -1.504242e+000 -4.019983e-001
      vertex 4.141971e-001 -1.274767e+000 -8.283941e-001
      vertex 6.885324e-001 -1.359098e+000 -4.019983e-001
    endloop
  endfacet
  facet normal 4.072784e-001 -8.098559e-001 -4.222057e-001
    outer loop
      vertex 6.885324e-001 -1.359098e+000 -4.019983e-001
      vertex 4.141971e-001 -1.274767e+000 -8.283941e-001
      vertex 8.079436e-001 -1.093189e+000 -7.968639e-001
    endloop
  endfacet
  facet normal 5.546849e-001 -7.581577e-001 -3.428141e-001
    outer loop
      vertex 6.885324e-001 -1.359098e+000 -4.019983e-001
      vertex 8.079436e-001 -1.093189e+000 -7.968639e-001
      vertex 1.074060e+000 -1.093189e+000 -3.662782e-001
    endloop
  endfacet
  facet normal 6.372375e-001 -6.624370e-001 -3.938345e-001
    outer loop
      vertex 1.074060e+000 -1.093189e+000 -3.662782e-001
      vertex 8.079436e-001 -1.093189e+000 -7.968639e-001
      vertex 1.140187e+000 -8.283936e-001 -7.046740e-001
    endloop
  endfacet
  facet normal 7.745020e-001 5.627087e-001 -2.889731e-001
    outer loop
      vertex 1.140186e+000 8.283939e-001 -7.046740e-001
      vertex 1.074060e+000 1.093189e+000 -3.662781e-001
      vertex 1.371587e+000 6.836777e-001 -3.662781e-001
    endloop
  endfacet
  facet normal 7.056159e-001 7.056158e-001 -6.490360e-002
    outer loop
      vertex 1.074060e+000 1.093189e+000 -3.662781e-001
      vertex 9.261726e-001 1.274767e+000 0.000000e+000
      vertex 1.274767e+000 9.261726e-001 0.000000e+000
    endloop
  endfacet
  facet normal 7.968668e-001 5.789577e-001 -1.726596e-001
    outer loop
      vertex 1.074060e+000 1.093189e+000 -3.662781e-001
      vertex 1.274767e+000 9.261726e-001 0.000000e+000
      vertex 1.371587e+000 6.836777e-001 -3.662781e-001
    endloop
  endfacet
  facet normal 8.891279e-001 4.530333e-001 -6.490336e-002
    outer loop
      vertex 1.371587e+000 6.836777e-001 -3.662781e-001
      vertex 1.274767e+000 9.261726e-001 0.000000e+000
      vertex 1.498579e+000 4.869177e-001 0.000000e+000
    endloop
  endfacet
  facet normal 5.885168e-001 7.907547e-001 1.683894e-001
    outer loop
      vertex 9.261726e-001 1.274767e+000 0.000000e+000
      vertex 7.077818e-001 1.359306e+000 3.662781e-001
      vertex 1.079811e+000 1.074818e+000 4.019983e-001
    endloop
  endfacet
  facet normal 7.047724e-001 7.047722e-001 8.119120e-002
    outer loop
      vertex 9.261726e-001 1.274767e+000 0.000000e+000
      vertex 1.079811e+000 1.074818e+000 4.019983e-001
      vertex 1.274767e+000 9.261726e-001 0.000000e+000
    endloop
  endfacet
  facet normal 7.969059e-001 5.789859e-001 1.723843e-001
    outer loop
      vertex 1.274767e+000 9.261726e-001 0.000000e+000
      vertex 1.079811e+000 1.074818e+000 4.019983e-001
      vertex 1.355892e+000 6.948246e-001 4.019983e-001
    endloop
  endfacet
  facet normal 8.880649e-001 4.524917e-001 8.119126e-002
    outer loop
      vertex 1.274767e+000 9.261726e-001 0.000000e+000
      vertex 1.355892e+000 6.948246e-001 4.019983e-001
      vertex 1.498579e+000 4.869177e-001 0.000000e+000
    endloop
  endfacet
  facet normal 9.339141e-001 3.153564e-001 1.683892e-001
    outer loop
      vertex 1.498579e+000 4.869177e-001 0.000000e+000
      vertex 1.355892e+000 6.948246e-001 4.019983e-001
      vertex 1.511493e+000 2.530920e-001 3.662781e-001
    endloop
  endfacet
  facet normal 4.330981e-001 8.107531e-001 3.938342e-001
    outer loop
      vertex 7.077818e-001 1.359306e+000 3.662781e-001
      vertex 4.355125e-001 1.340370e+000 7.046740e-001
      vertex 7.900164e-001 1.106214e+000 7.968639e-001
    endloop
  endfacet
  facet normal 5.496436e-001 7.618204e-001 3.428141e-001
    outer loop
      vertex 7.077818e-001 1.359306e+000 3.662781e-001
      vertex 7.900164e-001 1.106214e+000 7.968639e-001
      vertex 1.079811e+000 1.074818e+000 4.019983e-001
    endloop
  endfacet
  facet normal 6.443630e-001 6.376036e-001 4.222060e-001
    outer loop
      vertex 1.079811e+000 1.074818e+000 4.019983e-001
      vertex 7.900164e-001 1.106214e+000 7.968639e-001
      vertex 1.084382e+000 7.878494e-001 8.283939e-001
    endloop
  endfacet
  facet normal 7.545102e-001 5.481836e-001 3.608449e-001
    outer loop
      vertex 1.079811e+000 1.074818e+000 4.019983e-001
      vertex 1.084382e+000 7.878494e-001 8.283939e-001
      vertex 1.355892e+000 6.948246e-001 4.019983e-001
    endloop
  endfacet
  facet normal 8.055163e-001 4.157952e-001 4.222059e-001
    outer loop
      vertex 1.355892e+000 6.948246e-001 4.019983e-001
      vertex 1.084382e+000 7.878494e-001 8.283939e-001
      vertex 1.296200e+000 4.095114e-001 7.968639e-001
    endloop
  endfacet
  facet normal 8.943834e-001 2.873270e-001 3.428142e-001
    outer loop
      vertex 1.355892e+000 6.948246e-001 4.019983e-001
      vertex 1.296200e+000 4.095114e-001 7.968639e-001
      vertex 1.511493e+000 2.530920e-001 3.662781e-001
    endloop
  endfacet
  facet normal 9.049066e-001 1.613645e-001 3.938344e-001
    outer loop
      vertex 1.511493e+000 2.530920e-001 3.662781e-001
      vertex 1.296200e+000 4.095114e-001 7.968639e-001
      vertex 1.409348e+000 0.000000e+000 7.046740e-001
    endloop
  endfacet
  facet normal -2.958335e-001 9.104816e-001 -2.889735e-001
    outer loop
      vertex -4.355125e-001 1.340370e+000 -7.046740e-001
      vertex -7.077820e-001 1.359306e+000 -3.662781e-001
      vertex -2.263724e-001 1.515725e+000 -3.662781e-001
    endloop
  endfacet
  facet normal -4.530335e-001 8.891278e-001 -6.490342e-002
    outer loop
      vertex -7.077820e-001 1.359306e+000 -3.662781e-001
      vertex -9.261727e-001 1.274767e+000 0.000000e+000
      vertex -4.869179e-001 1.498579e+000 0.000000e+000
    endloop
  endfacet
  facet normal -3.043761e-001 9.367731e-001 -1.726597e-001
    outer loop
      vertex -7.077820e-001 1.359306e+000 -3.662781e-001
      vertex -4.869179e-001 1.498579e+000 0.000000e+000
      vertex -2.263724e-001 1.515725e+000 -3.662781e-001
    endloop
  endfacet
  facet normal -1.561043e-001 9.856059e-001 -6.490321e-002
    outer loop
      vertex -2.263724e-001 1.515725e+000 -3.662781e-001
      vertex -4.869179e-001 1.498579e+000 0.000000e+000
      vertex -4.329540e-008 1.575699e+000 0.000000e+000
    endloop
  endfacet
  facet normal -5.701908e-001 8.040693e-001 1.683895e-001
    outer loop
      vertex -9.261727e-001 1.274767e+000 0.000000e+000
      vertex -1.074060e+000 1.093189e+000 3.662781e-001
      vertex -6.885323e-001 1.359098e+000 4.019983e-001
    endloop
  endfacet
  facet normal -4.524918e-001 8.880648e-001 8.119140e-002
    outer loop
      vertex -9.261727e-001 1.274767e+000 0.000000e+000
      vertex -6.885323e-001 1.359098e+000 4.019983e-001
      vertex -4.869179e-001 1.498579e+000 0.000000e+000
    endloop
  endfacet
  facet normal -3.043911e-001 9.368189e-001 1.723846e-001
    outer loop
      vertex -4.869179e-001 1.498579e+000 0.000000e+000
      vertex -6.885323e-001 1.359098e+000 4.019983e-001
      vertex -2.418238e-001 1.504243e+000 4.019983e-001
    endloop
  endfacet
  facet normal -1.559177e-001 9.844276e-001 8.119119e-002
    outer loop
      vertex -4.869179e-001 1.498579e+000 0.000000e+000
      vertex -2.418238e-001 1.504243e+000 4.019983e-001
      vertex -4.329540e-008 1.575699e+000 0.000000e+000
    endloop
  endfacet
  facet normal -1.132618e-002 9.856555e-001 1.683891e-001
    outer loop
      vertex -4.329540e-008 1.575699e+000 0.000000e+000
      vertex -2.418238e-001 1.504243e+000 4.019983e-001
      vertex 2.263723e-001 1.515725e+000 3.662781e-001
    endloop
  endfacet
  facet normal -6.372372e-001 6.624373e-001 3.938344e-001
    outer loop
      vertex -1.074060e+000 1.093189e+000 3.662781e-001
      vertex -1.140187e+000 8.283939e-001 7.046740e-001
      vertex -8.079434e-001 1.093189e+000 7.968639e-001
    endloop
  endfacet
  facet normal -5.546851e-001 7.581575e-001 3.428143e-001
    outer loop
      vertex -1.074060e+000 1.093189e+000 3.662781e-001
      vertex -8.079434e-001 1.093189e+000 7.968639e-001
      vertex -6.885323e-001 1.359098e+000 4.019983e-001
    endloop
  endfacet
  facet normal -4.072782e-001 8.098558e-001 4.222062e-001
    outer loop
      vertex -6.885323e-001 1.359098e+000 4.019983e-001
      vertex -8.079434e-001 1.093189e+000 7.968639e-001
      vertex -4.141970e-001 1.274767e+000 8.283939e-001
    endloop
  endfacet
  facet normal -2.881973e-001 8.869798e-001 3.608450e-001
    outer loop
      vertex -6.885323e-001 1.359098e+000 4.019983e-001
      vertex -4.141970e-001 1.274767e+000 8.283939e-001
      vertex -2.418238e-001 1.504243e+000 4.019983e-001
    endloop
  endfacet
  facet normal -1.465266e-001 8.945792e-001 4.222062e-001
    outer loop
      vertex -2.418238e-001 1.504243e+000 4.019983e-001
      vertex -4.141970e-001 1.274767e+000 8.283939e-001
      vertex 1.107940e-002 1.359306e+000 7.968639e-001
    endloop
  endfacet
  facet normal 3.115749e-003 9.393980e-001 3.428144e-001
    outer loop
      vertex -2.418238e-001 1.504243e+000 4.019983e-001
      vertex 1.107940e-002 1.359306e+000 7.968639e-001
      vertex 2.263723e-001 1.515725e+000 3.662781e-001
    endloop
  endfacet
  facet normal 1.261649e-001 9.104816e-001 3.938344e-001
    outer loop
      vertex 2.263723e-001 1.515725e+000 3.662781e-001
      vertex 1.107940e-002 1.359306e+000 7.968639e-001
      vertex 4.355125e-001 1.340370e+000 7.046740e-001
    endloop
  endfacet
  facet normal -9.573372e-001 -2.290257e-007 -2.889732e-001
    outer loop
      vertex -1.409348e+000 -1.232091e-007 -7.046740e-001
      vertex -1.511493e+000 -2.530921e-001 -3.662781e-001
      vertex -1.511493e+000 2.530918e-001 -3.662781e-001
    endloop
  endfacet
  facet normal -9.856058e-001 -1.561046e-001 -6.490325e-002
    outer loop
      vertex -1.511493e+000 -2.530921e-001 -3.662781e-001
      vertex -1.498579e+000 -4.869179e-001 0.000000e+000
      vertex -1.575699e+000 -1.647055e-007 0.000000e+000
    endloop
  endfacet
  facet normal -9.849816e-001 -2.319689e-007 -1.726593e-001
    outer loop
      vertex -1.511493e+000 -2.530921e-001 -3.662781e-001
      vertex -1.575699e+000 -1.647055e-007 0.000000e+000
      vertex -1.511493e+000 2.530918e-001 -3.662781e-001
    endloop
  endfacet
  facet normal -9.856059e-001 1.561046e-001 -6.490291e-002
    outer loop
      vertex -1.511493e+000 2.530918e-001 -3.662781e-001
      vertex -1.575699e+000 -1.647055e-007 0.000000e+000
      vertex -1.498579e+000 4.869176e-001 0.000000e+000
    endloop
  endfacet
  facet normal -9.409140e-001 -2.938125e-001 1.683893e-001
    outer loop
      vertex -1.498579e+000 -4.869179e-001 0.000000e+000
      vertex -1.371587e+000 -6.836779e-001 3.662781e-001
      vertex -1.505347e+000 -2.348486e-001 4.019983e-001
    endloop
  endfacet
  facet normal -9.844275e-001 -1.559180e-001 8.119118e-002
    outer loop
      vertex -1.498579e+000 -4.869179e-001 0.000000e+000
      vertex -1.505347e+000 -2.348486e-001 4.019983e-001
      vertex -1.575699e+000 -1.647055e-007 0.000000e+000
    endloop
  endfacet
  facet normal -9.850298e-001 -2.429280e-007 1.723841e-001
    outer loop
      vertex -1.575699e+000 -1.647055e-007 0.000000e+000
      vertex -1.505347e+000 -2.348486e-001 4.019983e-001
      vertex -1.505347e+000 2.348484e-001 4.019983e-001
    endloop
  endfacet
  facet normal -9.844276e-001 1.559180e-001 8.119089e-002
    outer loop
      vertex -1.575699e+000 -1.647055e-007 0.000000e+000
      vertex -1.505347e+000 2.348484e-001 4.019983e-001
      vertex -1.498579e+000 4.869176e-001 0.000000e+000
    endloop
  endfacet
  facet normal -9.409142e-001 2.938123e-001 1.683889e-001
    outer loop
      vertex -1.498579e+000 4.869176e-001 0.000000e+000
      vertex -1.505347e+000 2.348484e-001 4.019983e-001
      vertex -1.371588e+000 6.836776e-001 3.662781e-001
    endloop
  endfacet
  facet normal -8.269326e-001 -4.013442e-001 3.938342e-001
    outer loop
      vertex -1.371587e+000 -6.836779e-001 3.662781e-001
      vertex -1.140186e+000 -8.283941e-001 7.046740e-001
      vertex -1.289353e+000 -4.305859e-001 7.968639e-001
    endloop
  endfacet
  facet normal -8.924578e-001 -2.932532e-001 3.428141e-001
    outer loop
      vertex -1.371587e+000 -6.836779e-001 3.662781e-001
      vertex -1.289353e+000 -4.305859e-001 7.968639e-001
      vertex -1.505347e+000 -2.348486e-001 4.019983e-001
    endloop
  endfacet
  facet normal -8.960747e-001 -1.370852e-001 4.222060e-001
    outer loop
      vertex -1.505347e+000 -2.348486e-001 4.019983e-001
      vertex -1.289353e+000 -4.305859e-001 7.968639e-001
      vertex -1.340369e+000 -1.298862e-007 8.283939e-001
    endloop
  endfacet
  facet normal -9.326258e-001 -2.367008e-007 3.608450e-001
    outer loop
      vertex -1.505347e+000 -2.348486e-001 4.019983e-001
      vertex -1.340369e+000 -1.298862e-007 8.283939e-001
      vertex -1.505347e+000 2.348484e-001 4.019983e-001
    endloop
  endfacet
  facet normal -8.960746e-001 1.370849e-001 4.222061e-001
    outer loop
      vertex -1.505347e+000 2.348484e-001 4.019983e-001
      vertex -1.340369e+000 -1.298862e-007 8.283939e-001
      vertex -1.289353e+000 4.305856e-001 7.968639e-001
    endloop
  endfacet
  facet normal -8.924578e-001 2.932530e-001 3.428143e-001
    outer loop
      vertex -1.505347e+000 2.348484e-001 4.019983e-001
      vertex -1.289353e+000 4.305856e-001 7.968639e-001
      vertex -1.371588e+000 6.836776e-001 3.662781e-001
    endloop
  endfacet
  facet normal -8.269325e-001 4.013441e-001 3.938344e-001
    outer loop
      vertex -1.371588e+000 6.836776e-001 3.662781e-001
      vertex -1.289353e+000 4.305856e-001 7.968639e-001
      vertex -1.140187e+000 8.283939e-001 7.046740e-001
    endloop
  endfacet
  facet normal -2.958335e-001 -9.104817e-001 -2.889735e-001
    outer loop
      vertex -4.355126e-001 -1.340370e+000 -7.046740e-001
      vertex -2.263724e-001 -1.515725e+000 -3.662781e-001
      vertex -7.077820e-001 -1.359306e+000 -3.662781e-001
    endloop
  endfacet
  facet normal -1.561044e-001 -9.856059e-001 -6.490318e-002
    outer loop
      vertex -2.263724e-001 -1.515725e+000 -3.662781e-001
      vertex 2.164770e-008 -1.575699e+000 0.000000e+000
      vertex -4.869177e-001 -1.498579e+000 0.000000e+000
    endloop
  endfacet
  facet normal -3.043761e-001 -9.367731e-001 -1.726596e-001
    outer loop
      vertex -2.263724e-001 -1.515725e+000 -3.662781e-001
      vertex -4.869177e-001 -1.498579e+000 0.000000e+000
      vertex -7.077820e-001 -1.359306e+000 -3.662781e-001
    endloop
  endfacet
  facet normal -4.530332e-001 -8.891279e-001 -6.490345e-002
    outer loop
      vertex -7.077820e-001 -1.359306e+000 -3.662781e-001
      vertex -4.869177e-001 -1.498579e+000 0.000000e+000
      vertex -9.261726e-001 -1.274767e+000 0.000000e+000
    endloop
  endfacet
  facet normal -1.132666e-002 -9.856555e-001 1.683894e-001
    outer loop
      vertex 2.164770e-008 -1.575699e+000 0.000000e+000
      vertex 2.263724e-001 -1.515725e+000 3.662781e-001
      vertex -2.418237e-001 -1.504243e+000 4.019983e-001
    endloop
  endfacet
  facet normal -1.559177e-001 -9.844275e-001 8.119179e-002
    outer loop
      vertex 2.164770e-008 -1.575699e+000 0.000000e+000
      vertex -2.418237e-001 -1.504243e+000 4.019983e-001
      vertex -4.869177e-001 -1.498579e+000 0.000000e+000
    endloop
  endfacet
  facet normal -3.043909e-001 -9.368188e-001 1.723850e-001
    outer loop
      vertex -4.869177e-001 -1.498579e+000 0.000000e+000
      vertex -2.418237e-001 -1.504243e+000 4.019983e-001
      vertex -6.885321e-001 -1.359098e+000 4.019983e-001
    endloop
  endfacet
  facet normal -4.524916e-001 -8.880649e-001 8.119196e-002
    outer loop
      vertex -4.869177e-001 -1.498579e+000 0.000000e+000
      vertex -6.885321e-001 -1.359098e+000 4.019983e-001
      vertex -9.261726e-001 -1.274767e+000 0.000000e+000
    endloop
  endfacet
  facet normal -5.701903e-001 -8.040696e-001 1.683897e-001
    outer loop
      vertex -9.261726e-001 -1.274767e+000 0.000000e+000
      vertex -6.885321e-001 -1.359098e+000 4.019983e-001
      vertex -1.074060e+000 -1.093189e+000 3.662781e-001
    endloop
  endfacet
  facet normal 1.261649e-001 -9.104817e-001 3.938344e-001
    outer loop
      vertex 2.263724e-001 -1.515725e+000 3.662781e-001
      vertex 4.355127e-001 -1.340370e+000 7.046740e-001
      vertex 1.107960e-002 -1.359306e+000 7.968639e-001
    endloop
  endfacet
  facet normal 3.115251e-003 -9.393981e-001 3.428141e-001
    outer loop
      vertex 2.263724e-001 -1.515725e+000 3.662781e-001
      vertex 1.107960e-002 -1.359306e+000 7.968639e-001
      vertex -2.418237e-001 -1.504243e+000 4.019983e-001
    endloop
  endfacet
  facet normal -1.465264e-001 -8.945795e-001 4.222057e-001
    outer loop
      vertex -2.418237e-001 -1.504243e+000 4.019983e-001
      vertex 1.107960e-002 -1.359306e+000 7.968639e-001
      vertex -4.141968e-001 -1.274767e+000 8.283939e-001
    endloop
  endfacet
  facet normal -2.881973e-001 -8.869800e-001 3.608445e-001
    outer loop
      vertex -2.418237e-001 -1.504243e+000 4.019983e-001
      vertex -4.141968e-001 -1.274767e+000 8.283939e-001
      vertex -6.885321e-001 -1.359098e+000 4.019983e-001
    endloop
  endfacet
  facet normal -4.072781e-001 -8.098561e-001 4.222057e-001
    outer loop
      vertex -6.885321e-001 -1.359098e+000 4.019983e-001
      vertex -4.141968e-001 -1.274767e+000 8.283939e-001
      vertex -8.079432e-001 -1.093189e+000 7.968639e-001
    endloop
  endfacet
  facet normal -5.546846e-001 -7.581580e-001 3.428141e-001
    outer loop
      vertex -6.885321e-001 -1.359098e+000 4.019983e-001
      vertex -8.079432e-001 -1.093189e+000 7.968639e-001
      vertex -1.074060e+000 -1.093189e+000 3.662781e-001
    endloop
  endfacet
  facet normal -6.372371e-001 -6.624374e-001 3.938344e-001
    outer loop
      vertex -1.074060e+000 -1.093189e+000 3.662781e-001
      vertex -8.079432e-001 -1.093189e+000 7.968639e-001
      vertex -1.140186e+000 -8.283941e-001 7.046740e-001
    endloop
  endfacet
  facet normal 7.745022e-001 -5.627083e-001 -2.889735e-001
    outer loop
      vertex 1.140187e+000 -8.283936e-001 -7.046740e-001
      vertex 1.371588e+000 -6.836774e-001 -3.662781e-001
      vertex 1.074060e+000 -1.093189e+000 -3.662782e-001
    endloop
  endfacet
  facet normal 8.891279e-001 -4.530332e-001 -6.490317e-002
    outer loop
      vertex 1.371588e+000 -6.836774e-001 -3.662781e-001
      vertex 1.498579e+000 -4.869175e-001 0.000000e+000
      vertex 1.274767e+000 -9.261724e-001 0.000000e+000
    endloop
  endfacet
  facet normal 7.968671e-001 -5.789573e-001 -1.726593e-001
    outer loop
      vertex 1.371588e+000 -6.836774e-001 -3.662781e-001
      vertex 1.274767e+000 -9.261724e-001 0.000000e+000
      vertex 1.074060e+000 -1.093189e+000 -3.662782e-001
    endloop
  endfacet
  facet normal 7.056164e-001 -7.056154e-001 -6.490340e-002
    outer loop
      vertex 1.074060e+000 -1.093189e+000 -3.662782e-001
      vertex 1.274767e+000 -9.261724e-001 0.000000e+000
      vertex 9.261730e-001 -1.274767e+000 0.000000e+000
    endloop
  endfacet
  facet normal 9.339142e-001 -3.153559e-001 1.683894e-001
    outer loop
      vertex 1.498579e+000 -4.869175e-001 0.000000e+000
      vertex 1.511493e+000 -2.530918e-001 3.662781e-001
      vertex 1.355892e+000 -6.948244e-001 4.019983e-001
    endloop
  endfacet
  facet normal 8.880649e-001 -4.524916e-001 8.119120e-002
    outer loop
      vertex 1.498579e+000 -4.869175e-001 0.000000e+000
      vertex 1.355892e+000 -6.948244e-001 4.019983e-001
      vertex 1.274767e+000 -9.261724e-001 0.000000e+000
    endloop
  endfacet
  facet normal 7.969058e-001 -5.789860e-001 1.723845e-001
    outer loop
      vertex 1.274767e+000 -9.261724e-001 0.000000e+000
      vertex 1.355892e+000 -6.948244e-001 4.019983e-001
      vertex 1.079811e+000 -1.074817e+000 4.019983e-001
    endloop
  endfacet
  facet normal 7.047728e-001 -7.047718e-001 8.119182e-002
    outer loop
      vertex 1.274767e+000 -9.261724e-001 0.000000e+000
      vertex 1.079811e+000 -1.074817e+000 4.019983e-001
      vertex 9.261730e-001 -1.274767e+000 0.000000e+000
    endloop
  endfacet
  facet normal 5.885174e-001 -7.907542e-001 1.683898e-001
    outer loop
      vertex 9.261730e-001 -1.274767e+000 0.000000e+000
      vertex 1.079811e+000 -1.074817e+000 4.019983e-001
      vertex 7.077822e-001 -1.359306e+000 3.662782e-001
    endloop
  endfacet
  facet normal 9.049069e-001 -1.613641e-001 3.938340e-001
    outer loop
      vertex 1.511493e+000 -2.530918e-001 3.662781e-001
      vertex 1.409348e+000 0.000000e+000 7.046740e-001
      vertex 1.296201e+000 -4.095114e-001 7.968639e-001
    endloop
  endfacet
  facet normal 8.943837e-001 -2.873267e-001 3.428138e-001
    outer loop
      vertex 1.511493e+000 -2.530918e-001 3.662781e-001
      vertex 1.296201e+000 -4.095114e-001 7.968639e-001
      vertex 1.355892e+000 -6.948244e-001 4.019983e-001
    endloop
  endfacet
  facet normal 8.055162e-001 -4.157955e-001 4.222058e-001
    outer loop
      vertex 1.355892e+000 -6.948244e-001 4.019983e-001
      vertex 1.296201e+000 -4.095114e-001 7.968639e-001
      vertex 1.084382e+000 -7.878494e-001 8.283939e-001
    endloop
  endfacet
  facet normal 7.545102e-001 -5.481839e-001 3.608447e-001
    outer loop
      vertex 1.355892e+000 -6.948244e-001 4.019983e-001
      vertex 1.084382e+000 -7.878494e-001 8.283939e-001
      vertex 1.079811e+000 -1.074817e+000 4.019983e-001
    endloop
  endfacet
  facet normal 6.443632e-001 -6.376037e-001 4.222057e-001
    outer loop
      vertex 1.079811e+000 -1.074817e+000 4.019983e-001
      vertex 1.084382e+000 -7.878494e-001 8.283939e-001
      vertex 7.900165e-001 -1.106214e+000 7.968639e-001
    endloop
  endfacet
  facet normal 5.496443e-001 -7.618200e-001 3.428141e-001
    outer loop
      vertex 1.079811e+000 -1.074817e+000 4.019983e-001
      vertex 7.900165e-001 -1.106214e+000 7.968639e-001
      vertex 7.077822e-001 -1.359306e+000 3.662782e-001
    endloop
  endfacet
  facet normal 4.330981e-001 -8.107530e-001 3.938345e-001
    outer loop
      vertex 7.077822e-001 -1.359306e+000 3.662782e-001
      vertex 7.900165e-001 -1.106214e+000 7.968639e-001
      vertex 4.355127e-001 -1.340370e+000 7.046740e-001
    endloop
  endfacet
  facet normal 5.243029e-002 1.613639e-001 -9.855013e-001
    outer loop
      vertex 0.000000e+000 0.000000e+000 -1.575699e+000
      vertex -1.330583e-001 4.095114e-001 -1.515725e+000
      vertex 3.483512e-001 2.530920e-001 -1.515725e+000
    endloop
  endfacet
  facet normal -3.019554e-002 4.122325e-001 -9.105782e-001
    outer loop
      vertex -1.330583e-001 4.095114e-001 -1.515725e+000
      vertex -2.559879e-001 7.878494e-001 -1.340369e+000
      vertex 2.177562e-001 6.701848e-001 -1.409348e+000
    endloop
  endfacet
  facet normal 8.839934e-002 2.720652e-001 -9.582098e-001
    outer loop
      vertex -1.330583e-001 4.095114e-001 -1.515725e+000
      vertex 2.177562e-001 6.701848e-001 -1.409348e+000
      vertex 3.483512e-001 2.530920e-001 -1.515725e+000
    endloop
  endfacet
  facet normal 2.667328e-001 3.157546e-001 -9.105782e-001
    outer loop
      vertex 3.483512e-001 2.530920e-001 -1.515725e+000
      vertex 2.177562e-001 6.701848e-001 -1.409348e+000
      vertex 6.701848e-001 4.869177e-001 -1.340369e+000
    endloop
  endfacet
  facet normal -1.028597e-001 6.342281e-001 -7.662733e-001
    outer loop
      vertex -2.559879e-001 7.878494e-001 -1.340369e+000
      vertex -3.594307e-001 1.106214e+000 -1.062981e+000
      vertex 9.578919e-002 1.054795e+000 -1.166645e+000
    endloop
  endfacet
  facet normal 1.019840e-002 5.359484e-001 -8.441892e-001
    outer loop
      vertex -2.559879e-001 7.878494e-001 -1.340369e+000
      vertex 9.578919e-002 1.054795e+000 -1.166645e+000
      vertex 2.177562e-001 6.701848e-001 -1.409348e+000
    endloop
  endfacet
  facet normal 1.837736e-001 5.655968e-001 -8.039449e-001
    outer loop
      vertex 2.177562e-001 6.701848e-001 -1.409348e+000
      vertex 9.578919e-002 1.054795e+000 -1.166645e+000
      vertex 5.424978e-001 9.096504e-001 -1.166645e+000
    endloop
  endfacet
  facet normal 3.067718e-001 4.395859e-001 -8.441891e-001
    outer loop
      vertex 2.177562e-001 6.701848e-001 -1.409348e+000
      vertex 5.424978e-001 9.096504e-001 -1.166645e+000
      vertex 6.701848e-001 4.869177e-001 -1.340369e+000
    endloop
  endfacet
  facet normal 4.560051e-001 4.526420e-001 -7.662731e-001
    outer loop
      vertex 6.701848e-001 4.869177e-001 -1.340369e+000
      vertex 5.424978e-001 9.096504e-001 -1.166645e+000
      vertex 9.410017e-001 6.836777e-001 -1.062981e+000
    endloop
  endfacet
  facet normal -1.585687e-001 8.107531e-001 -5.635028e-001
    outer loop
      vertex -3.594307e-001 1.106214e+000 -1.062981e+000
      vertex -4.355125e-001 1.340370e+000 -7.046740e-001
      vertex -1.107949e-002 1.359306e+000 -7.968639e-001
    endloop
  endfacet
  facet normal -6.081427e-002 7.618205e-001 -6.449273e-001
    outer loop
      vertex -3.594307e-001 1.106214e+000 -1.062981e+000
      vertex -1.107949e-002 1.359306e+000 -7.968639e-001
      vertex 9.578919e-002 1.054795e+000 -1.166645e+000
    endloop
  endfacet
  facet normal 1.101536e-001 7.826350e-001 -6.126571e-001
    outer loop
      vertex 9.578919e-002 1.054795e+000 -1.166645e+000
      vertex -1.107949e-002 1.359306e+000 -7.968639e-001
      vertex 4.141969e-001 1.274767e+000 -8.283939e-001
    endloop
  endfacet
  facet normal 2.286209e-001 7.036226e-001 -6.727910e-001
    outer loop
      vertex 9.578919e-002 1.054795e+000 -1.166645e+000
      vertex 4.141969e-001 1.274767e+000 -8.283939e-001
      vertex 5.424978e-001 9.096504e-001 -1.166645e+000
    endloop
  endfacet
  facet normal 3.709052e-001 6.979116e-001 -6.126570e-001
    outer loop
      vertex 5.424978e-001 9.096504e-001 -1.166645e+000
      vertex 4.141969e-001 1.274767e+000 -8.283939e-001
      vertex 8.079433e-001 1.093189e+000 -7.968639e-001
    endloop
  endfacet
  facet normal 4.969867e-001 5.805801e-001 -6.449272e-001
    outer loop
      vertex 5.424978e-001 9.096504e-001 -1.166645e+000
      vertex 8.079433e-001 1.093189e+000 -7.968639e-001
      vertex 9.410017e-001 6.836777e-001 -1.062981e+000
    endloop
  endfacet
  facet normal 6.048334e-001 5.627088e-001 -5.635027e-001
    outer loop
      vertex 9.410017e-001 6.836777e-001 -1.062981e+000
      vertex 8.079433e-001 1.093189e+000 -7.968639e-001
      vertex 1.140186e+000 8.283939e-001 -7.046740e-001
    endloop
  endfacet
  facet normal -1.372643e-001 9.972835e-002 -9.855013e-001
    outer loop
      vertex 0.000000e+000 0.000000e+000 -1.575699e+000
      vertex -4.305858e-001 -3.764301e-008 -1.515725e+000
      vertex -1.330583e-001 4.095114e-001 -1.515725e+000
    endloop
  endfacet
  facet normal -4.013873e-001 9.866951e-002 -9.105781e-001
    outer loop
      vertex -4.305858e-001 -3.764301e-008 -1.515725e+000
      vertex -8.283939e-001 -7.242050e-008 -1.340369e+000
      vertex -5.700932e-001 4.141969e-001 -1.409348e+000
    endloop
  endfacet
  facet normal -2.314328e-001 1.681458e-001 -9.582097e-001
    outer loop
      vertex -4.305858e-001 -3.764301e-008 -1.515725e+000
      vertex -5.700932e-001 4.141969e-001 -1.409348e+000
      vertex -1.330583e-001 4.095114e-001 -1.515725e+000
    endloop
  endfacet
  facet normal -2.178758e-001 3.512514e-001 -9.105781e-001
    outer loop
      vertex -1.330583e-001 4.095114e-001 -1.515725e+000
      vertex -5.700932e-001 4.141969e-001 -1.409348e+000
      vertex -2.559879e-001 7.878494e-001 -1.340369e+000
    endloop
  endfacet
  facet normal -6.349720e-001 9.816239e-002 -7.662733e-001
    outer loop
      vertex -8.283939e-001 -7.242050e-008 -1.340369e+000
      vertex -1.163142e+000 -1.016851e-007 -1.062981e+000
      vertex -9.735690e-001 4.170505e-001 -1.166644e+000
    endloop
  endfacet
  facet normal -5.065659e-001 1.753168e-001 -8.441890e-001
    outer loop
      vertex -8.283939e-001 -7.242050e-008 -1.340369e+000
      vertex -9.735690e-001 4.170505e-001 -1.166644e+000
      vertex -5.700932e-001 4.141969e-001 -1.409348e+000
    endloop
  endfacet
  facet normal -4.811254e-001 3.495582e-001 -8.039449e-001
    outer loop
      vertex -5.700932e-001 4.141969e-001 -1.409348e+000
      vertex -9.735690e-001 4.170505e-001 -1.166644e+000
      vertex -6.974880e-001 7.970433e-001 -1.166644e+000
    endloop
  endfacet
  facet normal -3.232739e-001 4.275969e-001 -8.441889e-001
    outer loop
      vertex -5.700932e-001 4.141969e-001 -1.409348e+000
      vertex -6.974880e-001 7.970433e-001 -1.166644e+000
      vertex -2.559879e-001 7.878494e-001 -1.340369e+000
    endloop
  endfacet
  facet normal -2.895754e-001 5.735604e-001 -7.662732e-001
    outer loop
      vertex -2.559879e-001 7.878494e-001 -1.340369e+000
      vertex -6.974880e-001 7.970433e-001 -1.166644e+000
      vertex -3.594307e-001 1.106214e+000 -1.062981e+000
    endloop
  endfacet
  facet normal -8.200725e-001 9.972864e-002 -5.635027e-001
    outer loop
      vertex -1.163142e+000 -1.016851e-007 -1.062981e+000
      vertex -1.409348e+000 -1.232091e-007 -7.046740e-001
      vertex -1.296200e+000 4.095113e-001 -7.968639e-001
    endloop
  endfacet
  facet normal -7.433267e-001 1.775780e-001 -6.449276e-001
    outer loop
      vertex -1.163142e+000 -1.016851e-007 -1.062981e+000
      vertex -1.296200e+000 4.095113e-001 -7.968639e-001
      vertex -9.735690e-001 4.170505e-001 -1.166644e+000
    endloop
  endfacet
  facet normal -7.102905e-001 3.466098e-001 -6.126574e-001
    outer loop
      vertex -9.735690e-001 4.170505e-001 -1.166644e+000
      vertex -1.296200e+000 4.095113e-001 -7.968639e-001
      vertex -1.084382e+000 7.878494e-001 -8.283939e-001
    endloop
  endfacet
  facet normal -5.985368e-001 4.348626e-001 -6.727913e-001
    outer loop
      vertex -9.735690e-001 4.170505e-001 -1.166644e+000
      vertex -1.084382e+000 7.878494e-001 -8.283939e-001
      vertex -6.974880e-001 7.970433e-001 -1.166644e+000
    endloop
  endfacet
  facet normal -5.491373e-001 5.684179e-001 -6.126576e-001
    outer loop
      vertex -6.974880e-001 7.970433e-001 -1.166644e+000
      vertex -1.084382e+000 7.878494e-001 -8.283939e-001
      vertex -7.900164e-001 1.106214e+000 -7.968639e-001
    endloop
  endfacet
  facet normal -3.985873e-001 6.520708e-001 -6.449277e-001
    outer loop
      vertex -6.974880e-001 7.970433e-001 -1.166644e+000
      vertex -7.900164e-001 1.106214e+000 -7.968639e-001
      vertex -3.594307e-001 1.106214e+000 -1.062981e+000
    endloop
  endfacet
  facet normal -3.482640e-001 7.491174e-001 -5.635028e-001
    outer loop
      vertex -3.594307e-001 1.106214e+000 -1.062981e+000
      vertex -7.900164e-001 1.106214e+000 -7.968639e-001
      vertex -4.355125e-001 1.340370e+000 -7.046740e-001
    endloop
  endfacet
  facet normal -1.372643e-001 -9.972835e-002 -9.855013e-001
    outer loop
      vertex 0.000000e+000 0.000000e+000 -1.575699e+000
      vertex -1.330584e-001 -4.095114e-001 -1.515725e+000
      vertex -4.305858e-001 -3.764301e-008 -1.515725e+000
    endloop
  endfacet
  facet normal -2.178755e-001 -3.512516e-001 -9.105782e-001
    outer loop
      vertex -1.330584e-001 -4.095114e-001 -1.515725e+000
      vertex -2.559879e-001 -7.878494e-001 -1.340369e+000
      vertex -5.700932e-001 -4.141970e-001 -1.409348e+000
    endloop
  endfacet
  facet normal -2.314325e-001 -1.681456e-001 -9.582098e-001
    outer loop
      vertex -1.330584e-001 -4.095114e-001 -1.515725e+000
      vertex -5.700932e-001 -4.141970e-001 -1.409348e+000
      vertex -4.305858e-001 -3.764301e-008 -1.515725e+000
    endloop
  endfacet
  facet normal -4.013874e-001 -9.866921e-002 -9.105781e-001
    outer loop
      vertex -4.305858e-001 -3.764301e-008 -1.515725e+000
      vertex -5.700932e-001 -4.141970e-001 -1.409348e+000
      vertex -8.283939e-001 -7.242050e-008 -1.340369e+000
    endloop
  endfacet
  facet normal -2.895755e-001 -5.735603e-001 -7.662732e-001
    outer loop
      vertex -2.559879e-001 -7.878494e-001 -1.340369e+000
      vertex -3.594308e-001 -1.106214e+000 -1.062981e+000
      vertex -6.974880e-001 -7.970434e-001 -1.166644e+000
    endloop
  endfacet
  facet normal -3.232740e-001 -4.275973e-001 -8.441886e-001
    outer loop
      vertex -2.559879e-001 -7.878494e-001 -1.340369e+000
      vertex -6.974880e-001 -7.970434e-001 -1.166644e+000
      vertex -5.700932e-001 -4.141970e-001 -1.409348e+000
    endloop
  endfacet
  facet normal -4.811259e-001 -3.495585e-001 -8.039445e-001
    outer loop
      vertex -5.700932e-001 -4.141970e-001 -1.409348e+000
      vertex -6.974880e-001 -7.970434e-001 -1.166644e+000
      vertex -9.735690e-001 -4.170505e-001 -1.166644e+000
    endloop
  endfacet
  facet normal -5.065663e-001 -1.753168e-001 -8.441887e-001
    outer loop
      vertex -5.700932e-001 -4.141970e-001 -1.409348e+000
      vertex -9.735690e-001 -4.170505e-001 -1.166644e+000
      vertex -8.283939e-001 -7.242050e-008 -1.340369e+000
    endloop
  endfacet
  facet normal -6.349719e-001 -9.816272e-002 -7.662733e-001
    outer loop
      vertex -8.283939e-001 -7.242050e-008 -1.340369e+000
      vertex -9.735690e-001 -4.170505e-001 -1.166644e+000
      vertex -1.163142e+000 -1.016851e-007 -1.062981e+000
    endloop
  endfacet
  facet normal -3.482639e-001 -7.491174e-001 -5.635028e-001
    outer loop
      vertex -3.594308e-001 -1.106214e+000 -1.062981e+000
      vertex -4.355126e-001 -1.340370e+000 -7.046740e-001
      vertex -7.900165e-001 -1.106214e+000 -7.968639e-001
    endloop
  endfacet
  facet normal -3.985873e-001 -6.520707e-001 -6.449279e-001
    outer loop
      vertex -3.594308e-001 -1.106214e+000 -1.062981e+000
      vertex -7.900165e-001 -1.106214e+000 -7.968639e-001
      vertex -6.974880e-001 -7.970434e-001 -1.166644e+000
    endloop
  endfacet
  facet normal -5.491371e-001 -5.684178e-001 -6.126578e-001
    outer loop
      vertex -6.974880e-001 -7.970434e-001 -1.166644e+000
      vertex -7.900165e-001 -1.106214e+000 -7.968639e-001
      vertex -1.084382e+000 -7.878494e-001 -8.283939e-001
    endloop
  endfacet
  facet normal -5.985367e-001 -4.348624e-001 -6.727916e-001
    outer loop
      vertex -6.974880e-001 -7.970434e-001 -1.166644e+000
      vertex -1.084382e+000 -7.878494e-001 -8.283939e-001
      vertex -9.735690e-001 -4.170505e-001 -1.166644e+000
    endloop
  endfacet
  facet normal -7.102903e-001 -3.466097e-001 -6.126577e-001
    outer loop
      vertex -9.735690e-001 -4.170505e-001 -1.166644e+000
      vertex -1.084382e+000 -7.878494e-001 -8.283939e-001
      vertex -1.296200e+000 -4.095115e-001 -7.968639e-001
    endloop
  endfacet
  facet normal -7.433264e-001 -1.775781e-001 -6.449278e-001
    outer loop
      vertex -9.735690e-001 -4.170505e-001 -1.166644e+000
      vertex -1.296200e+000 -4.095115e-001 -7.968639e-001
      vertex -1.163142e+000 -1.016851e-007 -1.062981e+000
    endloop
  endfacet
  facet normal -8.200725e-001 -9.972856e-002 -5.635027e-001
    outer loop
      vertex -1.163142e+000 -1.016851e-007 -1.062981e+000
      vertex -1.296200e+000 -4.095115e-001 -7.968639e-001
      vertex -1.409348e+000 -1.232091e-007 -7.046740e-001
    endloop
  endfacet
  facet normal 5.243032e-002 -1.613639e-001 -9.855013e-001
    outer loop
      vertex 0.000000e+000 0.000000e+000 -1.575699e+000
      vertex 3.483513e-001 -2.530918e-001 -1.515725e+000
      vertex -1.330584e-001 -4.095114e-001 -1.515725e+000
    endloop
  endfacet
  facet normal 2.667332e-001 -3.157541e-001 -9.105783e-001
    outer loop
      vertex 3.483513e-001 -2.530918e-001 -1.515725e+000
      vertex 6.701850e-001 -4.869175e-001 -1.340369e+000
      vertex 2.177563e-001 -6.701848e-001 -1.409348e+000
    endloop
  endfacet
  facet normal 8.839918e-002 -2.720646e-001 -9.582100e-001
    outer loop
      vertex 3.483513e-001 -2.530918e-001 -1.515725e+000
      vertex 2.177563e-001 -6.701848e-001 -1.409348e+000
      vertex -1.330584e-001 -4.095114e-001 -1.515725e+000
    endloop
  endfacet
  facet normal -3.019602e-002 -4.122324e-001 -9.105782e-001
    outer loop
      vertex -1.330584e-001 -4.095114e-001 -1.515725e+000
      vertex 2.177563e-001 -6.701848e-001 -1.409348e+000
      vertex -2.559879e-001 -7.878494e-001 -1.340369e+000
    endloop
  endfacet
  facet normal 4.560048e-001 -4.526425e-001 -7.662731e-001
    outer loop
      vertex 6.701850e-001 -4.869175e-001 -1.340369e+000
      vertex 9.410020e-001 -6.836774e-001 -1.062981e+000
      vertex 5.424979e-001 -9.096502e-001 -1.166644e+000
    endloop
  endfacet
  facet normal 3.067726e-001 -4.395865e-001 -8.441886e-001
    outer loop
      vertex 6.701850e-001 -4.869175e-001 -1.340369e+000
      vertex 5.424979e-001 -9.096502e-001 -1.166644e+000
      vertex 2.177563e-001 -6.701848e-001 -1.409348e+000
    endloop
  endfacet
  facet normal 1.837739e-001 -5.655978e-001 -8.039442e-001
    outer loop
      vertex 2.177563e-001 -6.701848e-001 -1.409348e+000
      vertex 5.424979e-001 -9.096502e-001 -1.166644e+000
      vertex 9.578929e-002 -1.054795e+000 -1.166644e+000
    endloop
  endfacet
  facet normal 1.019829e-002 -5.359493e-001 -8.441885e-001
    outer loop
      vertex 2.177563e-001 -6.701848e-001 -1.409348e+000
      vertex 9.578929e-002 -1.054795e+000 -1.166644e+000
      vertex -2.559879e-001 -7.878494e-001 -1.340369e+000
    endloop
  endfacet
  facet normal -1.028589e-001 -6.342282e-001 -7.662732e-001
    outer loop
      vertex -2.559879e-001 -7.878494e-001 -1.340369e+000
      vertex 9.578929e-002 -1.054795e+000 -1.166644e+000
      vertex -3.594308e-001 -1.106214e+000 -1.062981e+000
    endloop
  endfacet
  facet normal 6.048337e-001 -5.627085e-001 -5.635028e-001
    outer loop
      vertex 9.410020e-001 -6.836774e-001 -1.062981e+000
      vertex 1.140187e+000 -8.283936e-001 -7.046740e-001
      vertex 8.079436e-001 -1.093189e+000 -7.968639e-001
    endloop
  endfacet
  facet normal 4.969862e-001 -5.805799e-001 -6.449277e-001
    outer loop
      vertex 9.410020e-001 -6.836774e-001 -1.062981e+000
      vertex 8.079436e-001 -1.093189e+000 -7.968639e-001
      vertex 5.424979e-001 -9.096502e-001 -1.166644e+000
    endloop
  endfacet
  facet normal 3.709054e-001 -6.979110e-001 -6.126577e-001
    outer loop
      vertex 5.424979e-001 -9.096502e-001 -1.166644e+000
      vertex 8.079436e-001 -1.093189e+000 -7.968639e-001
      vertex 4.141971e-001 -1.274767e+000 -8.283941e-001
    endloop
  endfacet
  facet normal 2.286207e-001 -7.036219e-001 -6.727918e-001
    outer loop
      vertex 5.424979e-001 -9.096502e-001 -1.166644e+000
      vertex 4.141971e-001 -1.274767e+000 -8.283941e-001
      vertex 9.578929e-002 -1.054795e+000 -1.166644e+000
    endloop
  endfacet
  facet normal 1.101532e-001 -7.826344e-001 -6.126578e-001
    outer loop
      vertex 9.578929e-002 -1.054795e+000 -1.166644e+000
      vertex 4.141971e-001 -1.274767e+000 -8.283941e-001
      vertex -1.107944e-002 -1.359306e+000 -7.968639e-001
    endloop
  endfacet
  facet normal -6.081367e-002 -7.618201e-001 -6.449277e-001
    outer loop
      vertex 9.578929e-002 -1.054795e+000 -1.166644e+000
      vertex -1.107944e-002 -1.359306e+000 -7.968639e-001
      vertex -3.594308e-001 -1.106214e+000 -1.062981e+000
    endloop
  endfacet
  facet normal -1.585687e-001 -8.107531e-001 -5.635028e-001
    outer loop
      vertex -3.594308e-001 -1.106214e+000 -1.062981e+000
      vertex -1.107944e-002 -1.359306e+000 -7.968639e-001
      vertex -4.355126e-001 -1.340370e+000 -7.046740e-001
    endloop
  endfacet
  facet normal 1.696680e-001 2.082053e-008 -9.855013e-001
    outer loop
      vertex 0.000000e+000 0.000000e+000 -1.575699e+000
      vertex 3.483512e-001 2.530920e-001 -1.515725e+000
      vertex 3.483513e-001 -2.530918e-001 -1.515725e+000
    endloop
  endfacet
  facet normal 3.827256e-001 1.561043e-001 -9.105781e-001
    outer loop
      vertex 3.483512e-001 2.530920e-001 -1.515725e+000
      vertex 6.701848e-001 4.869177e-001 -1.340369e+000
      vertex 7.046741e-001 9.882333e-008 -1.409348e+000
    endloop
  endfacet
  facet normal 2.860666e-001 3.368519e-008 -9.582098e-001
    outer loop
      vertex 3.483512e-001 2.530920e-001 -1.515725e+000
      vertex 7.046741e-001 9.882333e-008 -1.409348e+000
      vertex 3.483513e-001 -2.530918e-001 -1.515725e+000
    endloop
  endfacet
  facet normal 3.827256e-001 -1.561042e-001 -9.105782e-001
    outer loop
      vertex 3.483513e-001 -2.530918e-001 -1.515725e+000
      vertex 7.046741e-001 9.882333e-008 -1.409348e+000
      vertex 6.701850e-001 -4.869175e-001 -1.340369e+000
    endloop
  endfacet
  facet normal 5.714018e-001 2.938120e-001 -7.662731e-001
    outer loop
      vertex 6.701848e-001 4.869177e-001 -1.340369e+000
      vertex 9.410017e-001 6.836777e-001 -1.062981e+000
      vertex 1.032770e+000 2.348486e-001 -1.166644e+000
    endloop
  endfacet
  facet normal 5.128694e-001 1.559177e-001 -8.441887e-001
    outer loop
      vertex 6.701848e-001 4.869177e-001 -1.340369e+000
      vertex 1.032770e+000 2.348486e-001 -1.166644e+000
      vertex 7.046741e-001 9.882333e-008 -1.409348e+000
    endloop
  endfacet
  facet normal 5.947041e-001 0.000000e+000 -8.039446e-001
    outer loop
      vertex 7.046741e-001 9.882333e-008 -1.409348e+000
      vertex 1.032770e+000 2.348486e-001 -1.166644e+000
      vertex 1.032770e+000 -2.348482e-001 -1.166644e+000
    endloop
  endfacet
  facet normal 5.128695e-001 -1.559175e-001 -8.441887e-001
    outer loop
      vertex 7.046741e-001 9.882333e-008 -1.409348e+000
      vertex 1.032770e+000 -2.348482e-001 -1.166644e+000
      vertex 6.701850e-001 -4.869175e-001 -1.340369e+000
    endloop
  endfacet
  facet normal 5.714020e-001 -2.938117e-001 -7.662731e-001
    outer loop
      vertex 6.701850e-001 -4.869175e-001 -1.340369e+000
      vertex 1.032770e+000 -2.348482e-001 -1.166644e+000
      vertex 9.410020e-001 -6.836774e-001 -1.062981e+000
    endloop
  endfacet
  facet normal 7.220715e-001 4.013443e-001 -5.635028e-001
    outer loop
      vertex 9.410017e-001 6.836777e-001 -1.062981e+000
      vertex 1.140186e+000 8.283939e-001 -7.046740e-001
      vertex 1.289353e+000 4.305859e-001 -7.968639e-001
    endloop
  endfacet
  facet normal 7.057416e-001 2.932529e-001 -6.449276e-001
    outer loop
      vertex 9.410017e-001 6.836777e-001 -1.062981e+000
      vertex 1.289353e+000 4.305859e-001 -7.968639e-001
      vertex 1.032770e+000 2.348486e-001 -1.166644e+000
    endloop
  endfacet
  facet normal 7.783691e-001 1.370853e-001 -6.126575e-001
    outer loop
      vertex 1.032770e+000 2.348486e-001 -1.166644e+000
      vertex 1.289353e+000 4.305859e-001 -7.968639e-001
      vertex 1.340370e+000 2.164771e-007 -8.283938e-001
    endloop
  endfacet
  facet normal 7.398322e-001 0.000000e+000 -6.727914e-001
    outer loop
      vertex 1.032770e+000 2.348486e-001 -1.166644e+000
      vertex 1.340370e+000 2.164771e-007 -8.283938e-001
      vertex 1.032770e+000 -2.348482e-001 -1.166644e+000
    endloop
  endfacet
  facet normal 7.783690e-001 -1.370849e-001 -6.126577e-001
    outer loop
      vertex 1.032770e+000 -2.348482e-001 -1.166644e+000
      vertex 1.340370e+000 2.164771e-007 -8.283938e-001
      vertex 1.289353e+000 -4.305854e-001 -7.968639e-001
    endloop
  endfacet
  facet normal 7.057416e-001 -2.932524e-001 -6.449278e-001
    outer loop
      vertex 1.032770e+000 -2.348482e-001 -1.166644e+000
      vertex 1.289353e+000 -4.305854e-001 -7.968639e-001
      vertex 9.410020e-001 -6.836774e-001 -1.062981e+000
    endloop
  endfacet
  facet normal 7.220717e-001 -4.013441e-001 -5.635028e-001
    outer loop
      vertex 9.410020e-001 -6.836774e-001 -1.062981e+000
      vertex 1.289353e+000 -4.305854e-001 -7.968639e-001
      vertex 1.140187e+000 -8.283936e-001 -7.046740e-001
    endloop
  endfacet
endsolid GEOSPHERE
